<?xml version="1.0" encoding="UTF-8"?>
<svg width="88px" height="88px" viewBox="0 0 88 88" version="1.1" xmlns="http://www.w3.org/2000/svg" xmlns:xlink="http://www.w3.org/1999/xlink">
    <!-- Generator: Sketch 46.2 (44496) - http://www.bohemiancoding.com/sketch -->
    <title>sad browser</title>
    <desc>Created with Sketch.</desc>
    <defs>
        <linearGradient x1="50%" y1="0%" x2="50%" y2="100%" id="linearGradient-1">
            <stop stop-color="#FFFFFF" offset="0%"></stop>
            <stop stop-color="#FFFFFF" stop-opacity="0.6" offset="100%"></stop>
        </linearGradient>
    </defs>
    <g id="Flow" stroke="none" stroke-width="1" fill="none" fill-rule="evenodd">
        <g id="16b-error-state" transform="translate(-136.000000, -226.000000)">
            <g id="sad-browser" transform="translate(136.000000, 226.000000)">
                <circle id="Oval" fill="url(#linearGradient-1)" cx="44" cy="44" r="44"></circle>
                <g id="Page-1" transform="translate(19.000000, 19.000000)" fill="#015595">
                    <path d="M41.0759514,46.2331507 L9.51108649,46.2331507 C6.34081622,46.2331507 3.7218973,43.2194521 3.7218973,39.4523288 L3.7218973,15.9591781 L46.7962216,15.9591781 L46.7962216,39.520137 C46.7962216,43.2194521 44.2462216,46.2331507 41.0759514,46.2331507 M9.51108649,3.69821918 L41.0063432,3.69821918 C44.1773027,3.69821918 46.7962216,6.71260274 46.7962216,10.479726 L46.7962216,12.1920548 L3.79012703,12.1920548 L3.79012703,10.479726 C3.79012703,6.71260274 6.34081622,3.69821918 9.51108649,3.69821918 M41.0759514,0.000273972603 L9.51108649,0.000273972603 C4.27324865,0.000273972603 -0.000413513514,4.72561644 -0.000413513514,10.479726 L-0.000413513514,39.520137 C-0.000413513514,45.2742466 4.27324865,50.000274 9.51108649,50.000274 L41.0063432,50.000274 C46.2448703,50.000274 50.5171541,45.2742466 50.5171541,39.520137 L50.5171541,10.479726 C50.5867622,4.65780822 46.3137892,0.000273972603 41.0759514,0.000273972603" id="Fill-1"></path>
                    <path d="M24.5,6 C25.8801471,6 27,7.11911765 27,8.5 C27,9.88088235 25.8801471,11 24.5,11 C23.1191176,11 22,9.88088235 22,8.5 C22,7.11911765 23.1191176,6 24.5,6" id="Fill-4"></path>
                    <path d="M31.4996323,6 C32.8807178,6 34,7.11911765 34,8.5 C34,9.88088235 32.8807178,11 31.4996323,11 C30.1192822,11 29,9.88088235 29,8.5 C29,7.11911765 30.1192822,6 31.4996323,6" id="Fill-6"></path>
                    <path d="M39.5003677,6 C40.8814532,6 42,7.11911765 42,8.5 C42,9.88088235 40.8814532,11 39.5003677,11 C38.1192822,11 37,9.88088235 37,8.5 C37,7.11911765 38.1192822,6 39.5003677,6" id="Fill-8"></path>
                    <polygon id="Fill-10" points="20.7393818 22 17.9569767 24.7584795 15.2613065 22 13 24.327851 15.6956701 26.9996588 13 29.672149 15.2613065 32 17.9569767 29.2415205 20.7393818 32 23 29.672149 20.2175948 26.9996588 23 24.327851"></polygon>
                    <polygon id="Fill-12" points="37 24.327851 34.7392262 22 32.0433705 24.7584795 29.2607738 22 27 24.327851 29.7825967 27.0003412 27 29.6728315 29.2607738 32 32.0433705 29.2415205 34.7392262 32 37 29.6728315 34.3048327 27.0003412"></polygon>
                    <polygon id="Fill-14" points="14 40 37 40 37 37 14 37"></polygon>
                </g>
            </g>
        </g>
    </g>
</svg>