<?xml version="1.0" encoding="UTF-8"?>
<svg width="319px" height="344px" viewBox="0 0 319 344" version="1.1" xmlns="http://www.w3.org/2000/svg" xmlns:xlink="http://www.w3.org/1999/xlink">
    <!-- Generator: Sketch 46.2 (44496) - http://www.bohemiancoding.com/sketch -->
    <title>Group</title>
    <desc>Created with Sketch.</desc>
    <defs>
        <rect id="path-1" x="0" y="0" width="299" height="324" rx="8"></rect>
        <filter x="-6.7%" y="-3.1%" width="113.4%" height="112.3%" filterUnits="objectBoundingBox" id="filter-3">
            <feOffset dx="0" dy="10" in="SourceAlpha" result="shadowOffsetOuter1"></feOffset>
            <feGaussianBlur stdDeviation="5" in="shadowOffsetOuter1" result="shadowBlurOuter1"></feGaussianBlur>
            <feColorMatrix values="0 0 0 0 0   0 0 0 0 0   0 0 0 0 0  0 0 0 0.15 0" type="matrix" in="shadowBlurOuter1"></feColorMatrix>
        </filter>
    </defs>
    <g id="Flow" stroke="none" stroke-width="1" fill="none" fill-rule="evenodd">
        <g id="18-Faveu-message" transform="translate(-21.000000, -161.000000)">
            <g id="Group" transform="translate(31.000000, 161.000000)">
                <mask id="mask-2" fill="white">
                    <use xlink:href="#path-1"></use>
                </mask>
                <g id="Rectangle-16-Copy">
                    <use fill="black" fill-opacity="1" filter="url(#filter-3)" xlink:href="#path-1"></use>
                    <use fill="#FFFFFF" fill-rule="evenodd" xlink:href="#path-1"></use>
                </g>
                <g id="Logo" opacity="0.0799999982" mask="url(#mask-2)">
                    <g transform="translate(178.000000, 192.000000)">
                        <g>
                            <path d="M75.1193638,11.3668154 C39.9654023,11.3668154 11.3671638,39.9650538 11.3671638,75.1190154 C11.3671638,110.270654 39.9654023,138.870054 75.1193638,138.870054 C110.272164,138.870054 138.870402,110.270654 138.870402,75.1190154 C138.870402,39.9650538 110.272164,11.3668154 75.1193638,11.3668154 M75.1193638,150.236869 C33.6989023,150.236869 0.000348461538,116.539477 0.000348461538,75.1190154 C0.000348461538,33.6985538 33.6989023,0 75.1193638,0 C116.538664,0 150.237218,33.6985538 150.237218,75.1190154 C150.237218,116.539477 116.538664,150.236869 75.1193638,150.236869" id="Fill-1" fill="#015595"></path>
                            <path d="M74.48528,123.266992 C54.8541185,123.266992 38.8841262,107.295838 38.8841262,87.6658377 L38.8841262,67.5352146 L50.2509415,67.5352146 L50.2509415,87.6658377 C50.2509415,101.028176 61.1229415,111.899015 74.48528,111.899015 C87.84878,111.899015 98.7196185,101.028176 98.7196185,87.6658377 L110.086434,87.6658377 C110.086434,107.295838 94.11528,123.266992 74.48528,123.266992" id="Fill-3" fill="#015595"></path>
                            <polygon id="Fill-5" fill="#015595" points="110.086898 47.2724085 110.086898 35.9055931 68.8011754 35.9055931 68.8011754 94.3989922 80.1691523 94.3989922 80.1691523 73.2188546 101.654129 73.2188546 101.654129 61.8508777 80.1691523 61.8508777 80.1691523 47.2724085"></polygon>
                            <circle id="Oval" fill="#015595" cx="74.4765557" cy="94.6098891" r="5.68766684"></circle>
                        </g>
                    </g>
                </g>
            </g>
        </g>
    </g>
</svg>