<?xml version="1.0" encoding="UTF-8"?>
<svg width="88px" height="88px" viewBox="0 0 88 88" version="1.1" xmlns="http://www.w3.org/2000/svg" xmlns:xlink="http://www.w3.org/1999/xlink">
    <!-- Generator: Sketch 46.2 (44496) - http://www.bohemiancoding.com/sketch -->
    <title>Thank you icon</title>
    <desc>Created with Sketch.</desc>
    <defs>
        <linearGradient x1="50%" y1="0%" x2="50%" y2="100%" id="linearGradient-1">
            <stop stop-color="#FFFFFF" offset="0%"></stop>
            <stop stop-color="#FFFFFF" stop-opacity="0.6" offset="100%"></stop>
        </linearGradient>
    </defs>
    <g id="Flow" stroke="none" stroke-width="1" fill="none" fill-rule="evenodd">
        <g id="15a-Thank-you" transform="translate(-136.000000, -226.000000)">
            <g id="Thank-you-icon" transform="translate(136.000000, 226.000000)">
                <circle id="Oval" fill="url(#linearGradient-1)" cx="44" cy="44" r="44"></circle>
                <path d="M30.4326207,51.2728401 L43.3716618,54.4066759 L43.3716618,58.3284992 L30.4326207,55.5990085 L30.4326207,51.2728401 Z M61.9314224,48.8668254 C61.2230099,48.9638682 60.7274447,49.6159959 60.8244875,50.3244084 C60.8898296,50.8096224 61.2249508,51.2159083 61.6888154,51.3737646 L70.7461442,54.6085249 C71.4021536,54.8918899 72.1636162,54.5897633 72.4463342,53.933107 C72.7296992,53.2770976 72.4275726,52.515635 71.7709163,52.23227 C71.7269235,52.2135084 71.6816369,52.1966876 71.6357033,52.1824547 L62.5783745,48.9476944 C62.3726437,48.8661785 62.1500922,48.8383595 61.9314224,48.8668254 L61.9314224,48.8668254 Z M62.0122914,40.4564487 C61.2974094,40.4900902 60.7449124,41.0969312 60.7785539,41.8111663 C60.8121954,42.5254013 61.4190364,43.0778984 62.1332715,43.0442569 L71.1906003,43.0442569 C71.9048353,43.0546081 72.4929148,42.4833495 72.502619,41.7691144 C72.5129703,41.0542324 71.9417116,40.4667999 71.2274765,40.4564487 C71.2151844,40.4564487 71.2028924,40.4564487 71.1906003,40.4564487 L62.1332715,40.4564487 C62.0931604,40.4545078 62.0524025,40.4545078 62.0122914,40.4564487 L62.0122914,40.4564487 Z M71.0896757,30.1052158 C70.9719305,30.1162139 70.8561261,30.1433859 70.7461442,30.1860848 L61.6888154,33.4208451 C61.0049871,33.6291636 60.6194037,34.3518091 60.8270753,35.0356374 C61.0353938,35.7194657 61.7586862,36.1050491 62.4425146,35.8967306 C62.4884482,35.8824976 62.5337348,35.8663238 62.5783745,35.8469153 L71.6357033,32.612155 C72.3078865,32.3701949 72.6565936,31.6281409 72.4139866,30.9559577 C72.2153723,30.4060485 71.6725795,30.0573413 71.0896757,30.1052158 L71.0896757,30.1052158 Z M55.6436954,24.9095438 C54.9288134,24.920542 54.3582017,25.5092684 54.3698468,26.2235034 L54.3698468,27.739959 L23.1744656,35.2808322 L16.8466275,35.2808322 C16.1323924,35.2808322 15.5527234,35.8605013 15.5527234,36.5747363 L15.5527234,48.2198734 C15.5527234,48.9347554 16.1323924,49.5137775 16.8466275,49.5137775 L23.1544101,49.5137775 L23.6195686,49.6354045 C24.3169829,49.802965 25.0189259,49.3727419 25.1864865,48.6746806 C25.3534001,47.9772663 24.9238239,47.2753233 24.2257627,47.1084097 L23.6195686,46.9667272 C23.519938,46.9414961 23.4183665,46.9279101 23.3161481,46.9259692 L18.1405316,46.9259692 L18.1405316,37.8686404 L23.3161481,37.8686404 C23.4183665,37.8673465 23.519938,37.8537605 23.6195686,37.8285294 L54.3698468,30.3885808 L54.3698468,54.4066759 L29.4421371,48.3816114 C29.3166284,48.3492638 29.187238,48.3356778 29.0578476,48.3415003 C28.3746662,48.3841992 27.8435186,48.9509292 27.8448125,49.6354045 L27.8448125,56.6302501 C27.8415777,57.2461484 28.2730947,57.7792369 28.876054,57.9040987 L44.4029034,61.1996725 C45.1029055,61.3445897 45.7873808,60.894958 45.9322981,60.1949559 C45.9504127,60.1063235 45.960117,60.0163972 45.9594701,59.9258239 L45.9594701,55.0329255 L54.3698468,57.0552976 L54.3698468,58.5711063 C54.3594956,59.2859883 54.9307542,59.8734207 55.6456362,59.883772 C56.3598713,59.8934763 56.9473038,59.3222176 56.957655,58.6079825 L56.957655,58.5711063 L56.957655,26.2235034 C56.9693002,25.5092684 56.3986884,24.920542 55.6838064,24.9095438 C55.6708674,24.9095438 55.6566344,24.9095438 55.6436954,24.9095438 L55.6436954,24.9095438 Z" id="Fill-1" fill="#015595"></path>
            </g>
        </g>
    </g>
</svg>