<?xml version="1.0" encoding="UTF-8"?>
<svg width="120px" height="120px" viewBox="0 0 120 120" version="1.1" xmlns="http://www.w3.org/2000/svg" xmlns:xlink="http://www.w3.org/1999/xlink">
    <!-- Generator: Sketch 44.1 (41455) - http://www.bohemiancoding.com/sketch -->
    <title>02-BFF relationship</title>
    <desc>Created with Sketch.</desc>
    <defs></defs>
    <g id="Page-1" stroke="none" stroke-width="1" fill="none" fill-rule="evenodd">
        <g id="02-BFF-relationship" fill="#1CB78D">
            <g id="Page-1" transform="translate(13.000000, 16.000000)">
                <path d="M83.9221,45.7878 L58.9511,20.4008 C58.4861,19.9278 57.8531,19.6588 57.1891,19.6538 L57.1681,19.6538 C56.5131,19.6538 55.8831,19.9118 55.4141,20.3728 C55.3321,20.4538 47.2171,28.4428 44.4141,31.0538 C40.7231,34.4948 35.6871,34.9608 32.4411,32.1628 C31.7771,31.5918 31.4411,31.0508 31.4411,30.5578 C31.4391,29.7438 32.2511,28.7738 32.6281,28.4458 C32.6761,28.4038 32.7251,28.3608 32.7721,28.3158 L49.4681,11.9758 C52.7381,8.9258 56.9681,7.0048 61.9871,6.2728 C68.4101,5.4658 74.7081,7.1818 79.7031,11.1028 C84.8471,15.1408 88.2221,21.1428 88.9641,27.5808 C89.7211,33.8978 87.8961,40.4018 83.9221,45.7878 M81.3791,53.7628 C79.9781,55.2438 77.9241,55.2298 76.6861,55.0488 L58.9631,37.1698 C57.9911,36.1898 56.4071,36.1818 55.4281,37.1538 C54.4471,38.1258 54.4411,39.7088 55.4111,40.6888 L73.4721,58.9088 C73.9971,59.8008 73.6531,61.5798 72.7491,62.4708 C71.9071,63.3008 69.7451,63.8448 68.8311,63.2648 L50.5671,44.5458 C49.6031,43.5578 48.0211,43.5388 47.0311,44.5028 C46.0441,45.4668 46.0251,47.0498 46.9881,48.0378 L65.3181,66.8228 C65.6621,68.0888 65.5201,69.7028 64.0511,70.7548 C63.4281,71.2368 61.9451,71.2668 60.8441,70.9188 C60.5671,69.6138 59.9641,67.6908 58.6751,66.1128 C57.4501,64.6168 55.1141,63.1418 52.6091,62.9688 C52.4821,61.4138 52.0131,59.6358 50.7651,58.1568 C49.0101,56.0808 46.5631,55.3488 44.3961,55.2428 C44.3201,53.2358 43.6561,50.9408 41.7531,49.0568 C39.9851,47.3098 37.8571,46.8528 35.9001,47.0188 C35.7841,45.4558 35.2061,43.7368 33.8121,42.0628 C29.9761,37.4608 24.5681,38.8158 22.0621,40.7498 C21.9871,40.8068 21.9161,40.8678 21.8491,40.9338 L13.4461,49.0698 C9.8781,45.2698 7.2151,40.5498 6.0241,35.8188 C3.8071,27.0528 5.1451,19.8188 10.1201,13.6978 C17.3671,4.7048 30.2001,2.3818 40.6291,8.1728 C41.4501,8.6298 42.7761,9.5638 43.9221,10.4048 L29.3281,24.6888 C28.7751,25.1758 26.4631,27.3998 26.4411,30.5098 C26.4311,31.9068 26.8971,33.9848 29.1761,35.9498 C34.3911,40.4438 42.2341,39.9238 47.8231,34.7118 C49.8791,32.7978 54.5571,28.2218 57.1391,25.6888 L81.9411,50.9028 C82.0871,51.4978 82.2381,52.8548 81.3791,53.7628 M49.1121,80.1888 C48.7171,80.5608 48.4011,80.8558 48.2031,81.0528 C46.6071,82.4248 44.7321,82.0038 43.9911,81.7558 C43.0581,81.4428 42.1021,80.9188 41.4311,78.5588 L51.4371,68.1388 C52.4931,67.6048 54.2081,68.5508 54.8041,69.2788 C55.5711,70.2168 55.9231,71.6698 56.0411,72.4478 C55.7561,73.2328 54.4161,75.2238 49.1121,80.1888 M32.3781,70.0938 L42.7331,60.3258 C43.7201,60.1738 45.8141,60.0448 46.9451,61.3858 C47.7191,62.3028 47.7001,63.9568 47.5791,64.9378 L37.6781,75.2478 C36.4211,75.0368 34.8981,74.2938 33.8611,73.3428 C33.0311,72.5798 32.4841,71.1748 32.3781,70.0938 M24.2791,62.1498 L34.0471,52.7168 C34.7051,52.3778 36.9661,51.3588 38.2361,52.6128 C39.6041,53.9648 39.4641,55.8148 39.2961,56.6928 L28.8801,66.5168 C27.8621,66.5168 26.6341,66.1968 25.6631,65.2378 C24.8901,64.5278 24.3611,63.2988 24.2791,62.1498 M15.9031,53.6508 L25.1921,44.6568 C25.6511,44.3528 28.0501,42.9608 29.9701,45.2638 C31.4541,47.0448 30.8591,48.5938 30.5831,49.1128 L20.7171,58.6368 C19.6691,58.6138 18.5591,58.1338 17.6391,57.2758 C16.5851,56.2918 15.9811,55.0028 15.9031,53.6508 M93.9281,26.9958 C93.0331,19.2528 88.9751,12.0268 82.7891,7.1698 C76.7361,2.4178 69.1291,0.3378 61.3141,1.3178 C55.9971,2.0928 51.4121,3.9838 47.6531,6.9478 C46.2121,5.8668 44.2591,4.4698 43.0571,3.8018 C30.4921,-3.1752 15.0031,-0.3322 6.2321,10.5518 C0.2831,17.8728 -1.4169,26.7858 1.1751,37.0428 C2.6901,43.0498 6.2041,49.0268 10.8901,53.6068 C10.9521,56.3588 12.1301,58.9748 14.2271,60.9318 C15.7251,62.3288 17.5481,63.2258 19.4151,63.5298 C19.7811,65.5828 20.7881,67.5498 22.2141,68.8588 C23.6421,70.2678 25.5171,71.1628 27.5201,71.4368 C27.9171,73.5418 28.9961,75.6628 30.4791,77.0258 C31.9601,78.3828 34.2751,79.7028 36.6781,80.1528 C37.4371,82.7208 38.9221,85.3338 42.4031,86.4978 C42.9571,86.6838 44.1331,87.0068 45.5941,87.0068 C47.3671,87.0068 49.5611,86.5308 51.5681,84.7528 C51.6091,84.7168 51.6491,84.6788 51.6871,84.6398 C51.8491,84.4758 52.1451,84.2008 52.5291,83.8408 C55.9101,80.6738 58.4561,78.0628 59.8591,75.8458 C62.2691,76.4748 65.1131,76.2568 67.0361,74.7658 C69.3391,73.1188 70.3441,70.7838 70.4631,68.4748 C72.6811,68.3338 74.8911,67.3818 76.2601,66.0328 C77.7061,64.6058 78.6691,62.3478 78.7131,60.0948 C81.1861,59.8898 83.4071,58.8918 85.0081,57.2028 C87.1341,54.9588 87.2861,52.0988 86.8911,50.1128 C92.3461,43.4658 94.9021,35.1158 93.9281,26.9958" id="Fill-1"></path>
            </g>
        </g>
    </g>
</svg>