<?xml version="1.0" encoding="utf-8"?>
<!-- Generator: Adobe Illustrator 21.1.0, SVG Export Plug-In . SVG Version: 6.00 Build 0)  -->
<svg version="1.1" id="Layer_1" xmlns="http://www.w3.org/2000/svg" xmlns:xlink="http://www.w3.org/1999/xlink" x="0px" y="0px"
	 viewBox="0 0 110 140" style="enable-background:new 0 0 110 140;" xml:space="preserve">
<style type="text/css">
	.st0{fill:#005495;}
	.st1{fill:#015595;}
	.st2{enable-background:new    ;}
</style>
<title>Group</title>
<desc>Created with Sketch.</desc>
<g id="Page-1">
	<g id="Splash-Screen" transform="translate(-124.000000, -230.000000)">
		<g id="Group" transform="translate(123.000000, 230.000000)">
			<g id="Logo" transform="translate(12.000000, 0.000000)">
				<path id="Fill-1" class="st0" d="M45.8,8.3c-21,0-38,17-38,38c0,21,17,38,38,38c21,0,38-17,38-38C83.8,25.3,66.7,8.3,45.8,8.3
					 M45.8,91C21.1,91,1,71,1,46.3S21.1,1.5,45.8,1.5c24.7,0,44.8,20.1,44.8,44.8S70.5,91,45.8,91"/>
				<path id="Fill-3" class="st0" d="M45.4,75c-11.7,0-21.2-9.5-21.2-21.2v-12H31v12c0,8,6.5,14.4,14.4,14.4c8,0,14.4-6.5,14.4-14.4
					h6.8C66.6,65.5,57.1,75,45.4,75"/>
				<polygon id="Fill-5" class="st0" points="66.6,29.7 66.6,22.9 42,22.9 42,57.8 48.8,57.8 48.8,45.1 61.6,45.1 61.6,38.4 
					48.8,38.4 48.8,29.7 				"/>
				<circle id="Oval" class="st1" cx="45.4" cy="57.9" r="3.4"/>
			</g>
			<g class="st2">
				<path class="st0" d="M3.1,117.5h14.2v3.7H7.3v4.3H17v3.7H7.3v8.3H3.1V117.5z"/>
				<path class="st0" d="M35.7,134h-8.9l-1.3,3.5h-4.7l7.7-20h5.3l7.7,20h-4.6L35.7,134z M27.9,130.4h6.6l-3.3-9.2L27.9,130.4z"/>
				<path class="st0" d="M43.9,117.5h4.9l5.5,15.4l5.5-15.4h4.9l-7.7,20h-5.3L43.9,117.5z"/>
				<path class="st0" d="M70.5,117.5h14.2v3.7h-9.9v4.3h9.7v3.7h-9.7v4.7h9.9v3.7H70.5V117.5z"/>
				<path class="st0" d="M92,117.5h4.3v11.9c0,2.8,1.5,4.7,4.6,4.7c3.1,0,4.6-1.9,4.6-4.7v-11.9h4.3v12c0,5-2.9,8.4-8.9,8.4
					c-6.1,0-9-3.4-9-8.3V117.5z"/>
			</g>
		</g>
	</g>
</g>
</svg>
