<?xml version="1.0" encoding="utf-8"?>
<!-- Generator: Adobe Illustrator 21.1.0, SVG Export Plug-In . SVG Version: 6.00 Build 0)  -->
<svg version="1.1" id="Layer_1" xmlns="http://www.w3.org/2000/svg" xmlns:xlink="http://www.w3.org/1999/xlink" x="0px" y="0px"
	 viewBox="0 0 56 69" style="enable-background:new 0 0 56 69;" xml:space="preserve">
<style type="text/css">
	.st0{opacity:0.8;fill:#FFFFFF;}
</style>
<title>Group 2</title>
<desc>Created with Sketch.</desc>
<path class="st0" d="M0.1,57.5h7.4v1.9H2.3v2.3h5.1v1.9H2.3V68H0.1V57.5z"/>
<path class="st0" d="M17.1,66.2h-4.7L11.8,68H9.4l4-10.4h2.8l4,10.4h-2.4L17.1,66.2z M13,64.3h3.5l-1.7-4.8L13,64.3z"/>
<path class="st0" d="M21.4,57.5h2.5l2.9,8l2.9-8h2.5l-4,10.4h-2.8L21.4,57.5z"/>
<path class="st0" d="M35.3,57.5h7.4v1.9h-5.2v2.3h5.1v1.9h-5.1V66h5.2v2h-7.4V57.5z"/>
<path class="st0" d="M46.5,57.5h2.3v6.2c0,1.5,0.8,2.5,2.4,2.5c1.6,0,2.4-1,2.4-2.5v-6.2h2.3v6.3c0,2.6-1.5,4.4-4.6,4.4
	c-3.2,0-4.7-1.8-4.7-4.4v-6.3C46.6,57.5,46.5,57.5,46.5,57.5z"/>
<path id="Fill-1" class="st0" d="M28.7,3.5c-10.9,0-19.8,8.9-19.8,19.8s8.9,19.8,19.8,19.8s19.8-8.9,19.8-19.8S39.6,3.5,28.7,3.5
	 M28.7,46.7c-12.9,0-23.4-10.5-23.4-23.4S15.8,0,28.7,0s23.4,10.5,23.4,23.3S41.5,46.7,28.7,46.7"/>
<path id="Fill-3" class="st0" d="M28.5,38.3c-6.1,0-11.1-5-11.1-11.1V21h3.5v6.3c0,4.1,3.4,7.5,7.5,7.5c4.2,0,7.5-3.4,7.5-7.5h3.5
	C39.5,33.3,34.6,38.3,28.5,38.3"/>
<path class="st0" d="M39.5,14.7v-3.5H26.7v18.1l0,0c0,0.9,0.8,1.7,1.7,1.7s1.7-0.8,1.7-1.7l0,0v-6.6h6.7v-3.5h-6.7v-4.5
	C30.1,14.7,39.5,14.7,39.5,14.7z"/>
</svg>
