<?xml version="1.0" encoding="UTF-8"?>
<svg width="90px" height="90px" viewBox="0 0 90 90" version="1.1" xmlns="http://www.w3.org/2000/svg" xmlns:xlink="http://www.w3.org/1999/xlink">
    <!-- Generator: Sketch 46 (44423) - http://www.bohemiancoding.com/sketch -->
    <title>Logo</title>
    <desc>Created with Sketch.</desc>
    <defs></defs>
    <g id="Page-1" stroke="none" stroke-width="1" fill="none" fill-rule="evenodd">
        <g id="13-click-for-the-link" transform="translate(-135.000000, -75.000000)" fill="#015595">
            <g id="Logo" transform="translate(135.000000, 75.000000)">
                <g>
                    <path d="M44.7731308,6.77492308 C23.8204385,6.77492308 6.77513077,23.8202308 6.77513077,44.7729231 C6.77513077,65.7242308 23.8204385,82.7702308 44.7731308,82.7702308 C65.7251308,82.7702308 82.7704385,65.7242308 82.7704385,44.7729231 C82.7704385,23.8202308 65.7251308,6.77492308 44.7731308,6.77492308 M44.7731308,89.5451538 C20.0854385,89.5451538 0.000207692308,69.4606154 0.000207692308,44.7729231 C0.000207692308,20.0852308 20.0854385,0 44.7731308,0 C69.4601308,0 89.5453615,20.0852308 89.5453615,44.7729231 C89.5453615,69.4606154 69.4601308,89.5451538 44.7731308,89.5451538" id="Fill-1"></path>
                    <path d="M44.3952,73.4703923 C32.6945077,73.4703923 23.1759692,63.9511615 23.1759692,52.2511615 L23.1759692,40.2527769 L29.9508923,40.2527769 L29.9508923,52.2511615 C29.9508923,60.2154692 36.4308923,66.6947769 44.3952,66.6947769 C52.3602,66.6947769 58.8395077,60.2154692 58.8395077,52.2511615 L65.6144308,52.2511615 C65.6144308,63.9511615 56.0952,73.4703923 44.3952,73.4703923" id="Fill-3"></path>
                    <polygon id="Fill-5" points="65.6147077 28.1756077 65.6147077 21.4006846 41.0073231 21.4006846 41.0073231 56.2643 47.7829385 56.2643 47.7829385 43.6403769 60.5885538 43.6403769 60.5885538 36.8647615 47.7829385 36.8647615 47.7829385 28.1756077"></polygon>
                    <circle id="Oval" cx="44.3900001" cy="56.3900001" r="3.3900001"></circle>
                </g>
            </g>
        </g>
    </g>
</svg>