<?xml version="1.0" encoding="UTF-8"?>
<svg width="120px" height="120px" viewBox="0 0 120 120" version="1.1" xmlns="http://www.w3.org/2000/svg" xmlns:xlink="http://www.w3.org/1999/xlink">
    <!-- Generator: Sketch 44.1 (41455) - http://www.bohemiancoding.com/sketch -->
    <title>01-Light Relationship icon</title>
    <desc>Created with Sketch.</desc>
    <defs></defs>
    <g id="Page-1" stroke="none" stroke-width="1" fill="none" fill-rule="evenodd">
        <g id="01-Light-Relationship-icon" stroke="#1CB78D" stroke-width="6">
            <g id="Page-1" transform="translate(16.000000, 19.000000)">
                <path d="M16.8074054,66.5948324 L17.2212432,60.4395892 C17.6172432,57.0432649 20.5830811,54.4222919 24.1030811,54.4246703 L49.3436216,54.4246703 C52.8624324,54.4401297 55.7022162,56.9267243 56.2337838,60.4645622 L56.6404865,66.5888865" id="Stroke-1"></path>
                <path d="M67.7578595,56.8653622 L85.1426162,74.2453622 C86.6802378,75.7913081 87.4068324,77.7189838 87.4199135,79.744173 C87.4068324,81.7657946 86.6778595,83.6958486 85.1402378,85.2417946 C83.5978595,86.7758486 81.6678054,87.5036324 79.6449946,87.5155243 C77.617427,87.5036324 75.6897514,86.7734703 74.147373,85.2394162 L56.7590486,67.858227" id="Stroke-3"></path>
                <path d="M36.8145622,16.3412432 C44.1316432,16.3531351 50.0549946,22.2776757 50.0692649,29.5947568 C50.057373,36.9118378 44.1328324,42.834 36.8145622,42.8482703 C29.4962919,42.8351892 23.5729405,36.9118378 23.5598595,29.5947568 C23.5717514,22.2788649 29.4962919,16.3555135 36.8145622,16.3412432 Z" id="Stroke-5"></path>
                <path d="M0.594237838,36.8146811 C0.594237838,56.8180324 16.8112108,73.0350054 36.8145622,73.0350054 C56.8179135,73.0350054 73.0348865,56.8180324 73.0348865,36.8146811 C73.0348865,16.8113297 56.8179135,0.594356757 36.8145622,0.594356757 C16.8112108,0.594356757 0.594237838,16.8113297 0.594237838,36.8146811 Z" id="Stroke-7"></path>
            </g>
        </g>
    </g>
</svg>