<?xml version="1.0" encoding="UTF-8"?>
<svg width="120px" height="120px" viewBox="0 0 120 120" version="1.1" xmlns="http://www.w3.org/2000/svg" xmlns:xlink="http://www.w3.org/1999/xlink">
    <!-- Generator: Sketch 44.1 (41455) - http://www.bohemiancoding.com/sketch -->
    <title>03-Serious Relationship icon</title>
    <desc>Created with Sketch.</desc>
    <defs></defs>
    <g id="Page-1" stroke="none" stroke-width="1" fill="none" fill-rule="evenodd">
        <g id="03-Serious-Relationship-icon" fill="#1CB78D">
            <g id="Group" transform="translate(5.000000, 16.000000)">
                <path d="M88.8484038,17.7003892 C85.330023,12.4462332 79.0494431,9.19366045 72.1408053,9.19366045 C65.3590352,9.19366045 59.3296786,12.3211343 55.8112977,17.4501913 L53.1747103,21.3282589 L50.5368668,17.5752903 C47.0197421,12.5713322 40.8647739,9.56895731 33.956136,9.56895731 C26.6706634,9.56895731 20.2632159,12.946629 16.8729589,18.7011809 C13.4814458,24.5808316 13.4814458,30.7106803 16.8729589,37.5911227 C19.2595792,42.4699819 23.1535387,47.0986432 26.796275,50.7265128 L21.6461996,54.4794814 C17.8778517,50.6014138 13.8582806,45.7225547 11.220437,40.3432997 C6.82403116,31.586373 6.94964276,23.2047432 11.4704041,15.4486081 C15.9936777,7.81757197 24.5352663,3.18891072 34.0804915,3.18891072 C41.4928318,3.18891072 48.4014697,5.94108768 53.1747103,10.8199468 C57.9466949,5.81598873 64.7309772,3.06381176 72.1408053,3.06381176 C80.1812036,3.06381176 87.4654201,6.31638454 92.3655285,11.8207385 C95.0021159,9.94425417 97.5143478,8.06776988 100.153447,6.19128559 C97.1387692,5.69088977 93.3704213,5.19049396 92.3655285,4.94029606 C91.9886937,4.94029606 91.7374705,4.8151971 91.4862473,4.5649992 C90.7325777,3.93950443 90.3544868,2.68851491 90.60571,1.81282224 C90.9825448,0.311634803 92.3655285,-0.188761008 93.7459999,0.0614368972 C98.0180503,0.686931661 102.414456,1.43752538 106.683994,2.06302014 C106.810862,2.06302014 107.062085,2.06302014 107.187697,2.1881191 C108.568168,2.56341595 109.196226,3.93950443 108.946259,5.31559292 C108.946259,5.69088977 108.819392,6.19128559 108.695036,6.56658244 C108.066978,10.5697489 107.43892,14.5729154 106.810862,18.5760819 C106.559639,19.9521704 104.926688,20.7027641 103.670572,20.3274673 C102.915646,20.0772693 102.287589,19.5768735 102.037621,18.9513788 C101.786398,18.450983 101.786398,17.8254882 101.910754,17.1999934 C102.037621,16.1992018 102.538812,13.3219259 102.915646,10.6948479 C100.403415,12.4462332 97.8911826,14.3227175 95.3789507,16.0741029 C99.5253895,23.58004 99.3985218,31.711472 95.2545952,40.0931018 C91.6106028,47.2237421 85.7081139,53.4786897 80.4324268,58.7328458 C74.5286818,64.3622986 58.7016206,77.7478866 55.1832398,80.5000636 L53.1747103,82 L51.1649248,80.5000636 C49.1538831,78.8725262 41.4928318,72.6175785 34.8354172,66.7391787 L40.1111043,62.8611112 C45.0099566,67.1144756 50.160032,71.366589 53.1747103,73.8685681 C58.5747529,69.4901047 71.0115571,58.9830437 75.9091532,54.1041845 C80.8092616,49.2253254 86.3361719,43.4707735 89.4764618,37.0907269 C92.8667188,30.3353835 92.8667188,24.3306337 89.4764618,18.450983 C89.2252386,18.2007851 89.0983709,17.9505871 88.8484038,17.7003892" id="Fill-1"></path>
                <path d="M52.6417178,42.4748764 C53.7816513,44.4413782 51.8817621,46.0391609 51.375125,46.5307864 L29.3376771,62.1398947 C29.0830919,63.4918647 27.6898398,72.5869356 27.4377879,74.1847184 C27.1832027,75.5366884 25.5378987,76.2741266 24.2713059,75.9054075 C22.750128,75.5366884 22.2434908,74.1847184 22.4968094,72.8327484 C22.750128,71.6036847 23.8900615,63.8605838 24.14338,62.7544265 L24.14338,62.5086138 L23.8900615,62.5086138 C22.750128,62.262801 14.3906155,61.0337374 12.8719708,60.7879247 C11.4774521,60.5421119 10.7174965,58.9443292 11.0974743,57.7152656 C11.4774521,56.2403892 12.8719708,55.7487637 14.2639563,55.9945765 C15.6572083,56.2403892 24.5233579,57.5923592 25.9166099,57.7152656 L49.095258,41.2458127 C49.3485765,41.1229064 49.7285544,41 50.1085322,41 C50.9951472,41.1229064 52.1363473,41.7374382 52.6417178,42.4748764" id="Fill-6"></path>
                <path d="M17.9464954,69.2053338 C17.2078027,73.4929722 16.5922254,77.9031146 15.976648,82.190753 C15.7304171,83.5370715 14.1299161,84.2733203 12.8987615,83.9058084 C11.421376,83.5370715 10.9289141,82.190753 11.175145,80.8432095 C11.6676069,77.4118738 12.2831842,73.981763 12.775646,70.5528773 C9.08218218,69.9403575 5.38871832,69.4491167 1.81836992,68.8365969 C0.46409984,68.592814 -0.274592932,66.9990376 0.0947534537,65.773998 C0.46409984,64.3051756 1.81836992,63.8151598 3.17264,64.0601677 C7.35856571,64.6726875 11.6676069,65.4064862 15.8535326,66.019006 C15.976648,66.019006 16.222879,66.019006 16.3459944,66.1427349 C17.5771491,66.5102468 18.1927264,67.8565653 17.9464954,69.2053338" id="Fill-10"></path>
            </g>
        </g>
    </g>
</svg>