<?xml version="1.0" encoding="UTF-8"?>
<svg width="88px" height="88px" viewBox="0 0 88 88" version="1.1" xmlns="http://www.w3.org/2000/svg" xmlns:xlink="http://www.w3.org/1999/xlink">
    <!-- Generator: Sketch 46 (44423) - http://www.bohemiancoding.com/sketch -->
    <title>Group</title>
    <desc>Created with Sketch.</desc>
    <defs>
        <linearGradient x1="50%" y1="0%" x2="50%" y2="100%" id="linearGradient-1">
            <stop stop-color="#FFFFFF" offset="0%"></stop>
            <stop stop-color="#FFFFFF" stop-opacity="0.6" offset="100%"></stop>
        </linearGradient>
    </defs>
    <g id="Page-1" stroke="none" stroke-width="1" fill="none" fill-rule="evenodd">
        <g id="12" transform="translate(-136.000000, -197.000000)">
            <g id="Connected-heart-icon" transform="translate(136.000000, 197.000000)">
                <g id="Group">
                    <circle id="Oval" fill="url(#linearGradient-1)" cx="44" cy="44" r="44"></circle>
                    <g id="Page-1" transform="translate(20.000000, 23.000000)" stroke="#015595" stroke-width="4" stroke-linecap="round" stroke-linejoin="round">
                        <path d="M28.4055544,18.7602744 C28.8204045,18.3001176 29.1908347,17.8344072 29.5120857,17.3615565 C29.7318055,17.0561076 29.9269358,16.730031 30.1006493,16.3888803 C30.1220661,16.3492116 30.1411032,16.3079562 30.1625199,16.2674941 C30.3267149,15.9342771 30.4750456,15.5899529 30.5932342,15.2273811 C30.5995799,15.212307 30.6083053,15.1964396 30.614651,15.1797787 L30.6114781,15.1797787 C30.6162374,15.1686715 30.6209967,15.1575643 30.6241695,15.1456636 C31.9535936,10.9693443 29.643759,6.50820384 25.4682887,5.18168297 C22.1716979,4.1328429 18.2905094,5.22055828 16.2963734,7.82758436 L16.3090648,7.78791567 C16.1662866,4.52556289 13.6319728,1.41791799 10.350453,0.374631535 C6.23764656,-0.932848373 1.85435467,1.29097819 0.457507577,5.34908482 L0.446402603,5.34591133 C0.438470479,5.37050591 0.435297629,5.39668725 0.42895193,5.42207521 C0.417053743,5.45936377 0.39960307,5.49347884 0.389291308,5.53076741 C0.134670118,6.32493451 0.0141018288,7.12941548 0.0141018288,7.92040908 C-0.319047392,14.8489419 5.32307263,23.8291391 9.26771804,30 C13.6383185,28.2133224 19.3423091,25.6586589 23.7961969,22.6335249" id="Stroke-1"></path>
                        <path d="M18.5132401,31.6629662 C18.9166798,32.1741803 19.3598153,32.6742116 19.8345454,33.1662551 C24.1921795,37.6649391 31.3390559,41.3313027 36.6267074,44 C41.1471756,38.1881348 47.5211977,29.1787852 47.9700041,22.7279024 C48.0048392,22.3524796 48.0080797,21.9698678 47.9862065,21.5848597 C47.9862065,21.5385309 47.9813457,21.4945984 47.9781053,21.4474709 C47.9513713,21.0744443 47.9035742,20.7014178 47.8217522,20.3251962 C47.8185117,20.3092208 47.8217522,20.290849 47.8152712,20.2724772 L47.8152712,20.273276 C47.8120307,20.2612944 47.8120307,20.2501116 47.8087902,20.2365325 C46.8277352,15.9319501 42.4927845,13.2289056 38.1286694,14.1962185 C34.6824201,14.9590458 31.8186468,17.8761612 31.4038655,21.1559191 L31.394144,21.1151817 C29.587577,18.3506318 25.7524702,16.9368053 22.3199928,17.6988338 C18.1543571,18.6206167 15.4720506,22.5553677 16.0877416,26.6530681" id="Stroke-3"></path>
                    </g>
                </g>
            </g>
        </g>
    </g>
</svg>