<?xml version="1.0" encoding="UTF-8"?>
<svg width="32px" height="32px" viewBox="0 0 32 32" version="1.1" xmlns="http://www.w3.org/2000/svg" xmlns:xlink="http://www.w3.org/1999/xlink">
    <!-- Generator: Sketch 46 (44423) - http://www.bohemiancoding.com/sketch -->
    <title>Page 1</title>
    <desc>Created with Sketch.</desc>
    <defs></defs>
    <g id="Page-1" stroke="none" stroke-width="1" fill="none" fill-rule="evenodd">
        <g id="12" transform="translate(-65.000000, -431.000000)" stroke="#FFFFFF" stroke-width="2">
            <g id="Page-1" transform="translate(66.000000, 432.000000)">
                <path d="M17.68555,26.15015 C13.59655,25.45015 14.00005,24.40015 14.00005,23.70015 L14.00005,22.43165 C15.21305,21.28165 16.00005,19.45915 16.00005,17.40015 L16.00005,16.70015 L16.00005,14.04065 C16.00005,10.40015 13.36705,9.00015 11.00005,9.00015 C8.63305,9.00015 6.00005,10.40015 6.00005,14.04065 L6.00005,16.70015 L6.00005,17.40015 C6.00005,19.47765 6.80155,21.31515 8.03305,22.46265 L8.03305,23.70015 C8.03305,24.40015 8.40455,25.45015 4.31555,26.15015 C0.65805,26.77615 5e-05,29.00015 5e-05,30.00015 L22.00005,30.00015 C22.00005,29.00015 21.34155,26.77615 17.68555,26.15015 Z" id="Stroke-1"></path>
                <path d="M16,15 C17.212,15.556 18.541,15.9145 20,15.979 L20,20 L24.923,15.077 C27.9405,13.737 30,11.0725 30,8 C30,3.582 25.747,0 20.5,0 C15.254,0 11,3.582 11,8" id="Stroke-9" stroke-linecap="round"></path>
            </g>
        </g>
    </g>
</svg>