<?xml version="1.0" encoding="utf-8"?>
<!-- Generator: Adobe Illustrator 21.1.0, SVG Export Plug-In . SVG Version: 6.00 Build 0)  -->
<svg version="1.1" id="Layer_1" xmlns="http://www.w3.org/2000/svg" xmlns:xlink="http://www.w3.org/1999/xlink" x="0px" y="0px"
	 viewBox="0 0 280 220" style="enable-background:new 0 0 280 220;" xml:space="preserve">
<style type="text/css">
	.st0{fill:#FFFFFF;}
	.st1{fill:#DAB668;}
	.st2{fill:#010101;}
	.st3{fill:none;}
</style>
<g id="Layer_2">
</g>
<g id="Layer_1_1_">
	<rect class="st0" width="280" height="220"/>
	<title>Group 2</title>
	<desc>Created with Sketch.</desc>
	<path class="st1" d="M246.9,14.9c-0.7-1.9-1.9-3.6-3.7-4.7c-1.6-1-3.5-1.1-4.5,0.5c-1.4,2.1,0.1,5.6,1,7.6c1.4,3.2,3.6,6,5.8,8.8
		c0.5,0.7,1.7,0.1,1.4-0.5c0.3,0.1,0.6,0,0.8-0.3c1.8-2.6,3.5-5.2,4.6-8.1c0.6-1.6,1.8-5.3,0.6-6.9C251.1,8.8,248.3,12.3,246.9,14.9
		z M244,15.8l1,2.9c0.1,0.5,0.2,0.9,0.3,1.4c-0.3-0.8-0.6-1.5-1-2.3c0.2-0.1,0.3-0.2,0.2-0.4c-0.2-0.4-0.4-0.8-0.6-1.2
		c0-0.1,0-0.1,0-0.2S243.9,15.8,244,15.8C243.9,15.8,243.9,15.8,244,15.8z M240.9,17.5c-0.2-0.6-0.5-1.2-0.7-1.8
		c-0.2-0.6-0.3-1.2-0.4-1.7c-0.3-0.6-0.2-1,0.3-1.3c0.2,0.9,0.6,1.8,1,2.7c0.4,1.1,0.8,2.1,1.3,3.2c1,2.2,2.5,4.3,3.4,6.6
		C243.9,22.7,242.1,20.2,240.9,17.5z M245.9,17.1c0,0.2,0,0.4,0,0.6c-0.1-0.2-0.1-0.4-0.2-0.5c0,0,0,0,0-0.1s0-0.1-0.1-0.2
		c-0.2-0.7-0.5-1.4-0.7-2.1c0-0.3-0.1-0.6-0.1-0.9c0.5,0.9,0.9,1.9,1.1,2.9c0,0.1,0,0.1,0.1,0.2C245.9,17,245.9,17,245.9,17.1z
		 M247.7,23.7c0.2-0.5,0.5-1,0.7-1.4c0.1,0,0.2,0,0.2,0C248.3,22.7,248,23.2,247.7,23.7z M250.4,13.7c0-0.1,0-0.1,0-0.2l0,0
		c0.1-0.1,0.2-0.1,0.3-0.2c0,0.2-0.1,0.4-0.2,0.5C250.5,13.8,250.4,13.8,250.4,13.7C250.4,13.8,250.4,13.8,250.4,13.7z M251.3,16.4
		c-0.4,1.7-1.2,3.2-2,4.8c1.1-2.3,1.9-4.7,2.5-7.1C251.6,14.9,251.4,15.7,251.3,16.4z"/>
	<path class="st2" d="M264.9,15.8c-0.4,0-0.7,0.2-1,0.3c-1,0.6-1.5,2.1-0.8,3.1c0.4,0.6,1.1,0.9,1.8,0.9c0.5,0,1-0.2,1.4-0.6
		c0.2-0.2,0.4-0.5,0.5-0.9c0.2-0.5,0.3-1.1,0.3-1.6C267,16,265.9,15.6,264.9,15.8z"/>
	<path class="st1" d="M208.5,14.9c-0.7-1.9-1.9-3.6-3.7-4.7c-1.6-1-3.5-1.1-4.5,0.5c-1.4,2.1,0.1,5.6,1,7.6c1.4,3.2,3.6,6,5.8,8.8
		c0.5,0.7,1.7,0.1,1.4-0.5c0.3,0.1,0.6,0,0.8-0.3c1.8-2.6,3.5-5.2,4.6-8.1c0.6-1.6,1.8-5.3,0.6-6.9C212.8,8.8,210,12.3,208.5,14.9z
		 M205.6,15.8l1,2.9c0.1,0.5,0.2,0.9,0.3,1.4c-0.3-0.8-0.6-1.5-1-2.3c0.2-0.1,0.3-0.2,0.2-0.4c-0.2-0.4-0.4-0.8-0.6-1.2
		c0-0.1,0-0.1,0-0.2C205.6,15.9,205.5,15.8,205.6,15.8L205.6,15.8z M202.6,17.5c-0.2-0.6-0.5-1.2-0.7-1.8c-0.2-0.6-0.3-1.2-0.4-1.7
		c-0.3-0.6-0.2-1,0.3-1.3c0.2,0.9,0.6,1.8,1,2.7c0.4,1.1,0.8,2.1,1.3,3.2c1,2.2,2.5,4.3,3.4,6.6C205.6,22.7,203.7,20.2,202.6,17.5z
		 M207.5,17.1c0,0.2,0,0.4,0,0.6c-0.1-0.2-0.1-0.4-0.2-0.5c0,0,0,0,0-0.1s0-0.1-0.1-0.2c-0.2-0.7-0.5-1.4-0.7-2.1
		c0-0.3-0.1-0.6-0.1-0.9c0.5,0.9,0.9,1.9,1.1,2.9c0,0.1,0,0.1,0.1,0.2C207.6,17,207.5,17,207.5,17.1z M209.3,23.7
		c0.2-0.5,0.5-1,0.7-1.4c0.1,0,0.2,0,0.2,0C210,22.7,209.7,23.2,209.3,23.7z M212.1,13.7c0-0.1,0-0.1,0-0.2l0,0
		c0.1-0.1,0.2-0.1,0.3-0.2c0,0.2-0.1,0.4-0.2,0.5C212.2,13.8,212.1,13.8,212.1,13.7C212,13.8,212,13.8,212.1,13.7z M212.9,16.4
		c-0.4,1.7-1.2,3.2-2,4.8c1.1-2.3,1.9-4.7,2.5-7.1C213.3,14.9,213.1,15.7,212.9,16.4z"/>
	<path class="st2" d="M226.5,15.8c-0.4,0-0.7,0.2-1,0.3c-1,0.6-1.5,2.1-0.8,3.1c0.4,0.6,1.1,0.9,1.8,0.9c0.5,0,1-0.2,1.4-0.6
		c0.2-0.2,0.4-0.5,0.5-0.9c0.2-0.5,0.3-1.1,0.3-1.6C228.7,16,227.6,15.6,226.5,15.8z"/>
	<path class="st1" d="M170.2,14.9c-0.7-1.9-1.9-3.6-3.7-4.7c-1.6-1-3.5-1.1-4.5,0.5c-1.4,2.1,0.1,5.6,1,7.6c1.4,3.2,3.6,6,5.8,8.8
		c0.5,0.7,1.7,0.1,1.4-0.5c0.3,0.1,0.6,0,0.8-0.3c1.8-2.6,3.5-5.2,4.6-8.1c0.6-1.6,1.8-5.3,0.6-6.9C174.5,8.8,171.7,12.3,170.2,14.9
		z M167.3,15.8l1,2.9c0.1,0.5,0.2,0.9,0.3,1.4c-0.3-0.8-0.6-1.5-1-2.3c0.2-0.1,0.3-0.2,0.2-0.4c-0.2-0.4-0.4-0.8-0.6-1.2
		c0-0.1,0-0.1,0-0.2S167.2,15.8,167.3,15.8C167.2,15.8,167.3,15.8,167.3,15.8z M164.2,17.5c-0.2-0.6-0.5-1.2-0.7-1.8
		c-0.2-0.6-0.3-1.2-0.4-1.7c-0.3-0.6-0.2-1,0.3-1.3c0.2,0.9,0.6,1.8,1,2.7c0.4,1.1,0.8,2.1,1.3,3.2c1,2.2,2.5,4.3,3.4,6.6
		C167.2,22.7,165.4,20.2,164.2,17.5z M169.2,17.1c0,0.2,0,0.4,0,0.6c-0.1-0.2-0.1-0.4-0.2-0.5c0,0,0,0,0-0.1s0-0.1-0.1-0.2
		c-0.2-0.7-0.5-1.4-0.7-2.1c0-0.3-0.1-0.6-0.1-0.9c0.5,0.9,0.9,1.9,1.1,2.9c0,0.1,0,0.1,0.1,0.2C169.2,17,169.2,17,169.2,17.1z
		 M171,23.7c0.2-0.5,0.5-1,0.7-1.4c0.1,0,0.2,0,0.2,0C171.6,22.7,171.3,23.2,171,23.7z M173.7,13.7c0-0.1,0-0.1,0-0.2l0,0
		c0.1-0.1,0.2-0.1,0.3-0.2c0,0.2-0.1,0.4-0.2,0.5C173.9,13.8,173.8,13.8,173.7,13.7C173.7,13.8,173.7,13.8,173.7,13.7z M174.6,16.4
		c-0.4,1.7-1.2,3.2-2,4.8c1.1-2.3,1.9-4.7,2.5-7.1C175,14.9,174.8,15.7,174.6,16.4z"/>
	<path class="st2" d="M188.2,15.8c-0.4,0-0.7,0.2-1,0.3c-1,0.6-1.5,2.1-0.8,3.1c0.4,0.6,1.1,0.9,1.8,0.9c0.5,0,1-0.2,1.4-0.6
		c0.2-0.2,0.4-0.5,0.5-0.9c0.2-0.5,0.3-1.1,0.3-1.6C190.4,16,189.2,15.6,188.2,15.8z"/>
	<path class="st1" d="M131.9,14.9c-0.7-1.9-1.9-3.6-3.7-4.7c-1.6-1-3.5-1.1-4.5,0.5c-1.4,2.1,0.1,5.6,1,7.6c1.4,3.2,3.6,6,5.8,8.8
		c0.5,0.7,1.7,0.1,1.4-0.5c0.3,0.1,0.6,0,0.8-0.3c1.8-2.6,3.5-5.2,4.6-8.1c0.6-1.6,1.8-5.3,0.6-6.9C136.1,8.8,133.3,12.3,131.9,14.9
		z M129,15.8l1,2.9c0.1,0.5,0.2,0.9,0.3,1.4c-0.3-0.8-0.6-1.5-1-2.3c0.2-0.1,0.3-0.2,0.2-0.4c-0.2-0.4-0.4-0.8-0.6-1.2
		c0-0.1,0-0.1,0-0.2S128.9,15.8,129,15.8C128.9,15.8,128.9,15.8,129,15.8z M125.9,17.5c-0.2-0.6-0.5-1.2-0.7-1.8
		c-0.2-0.6-0.3-1.2-0.4-1.7c-0.3-0.6-0.2-1,0.3-1.3c0.2,0.9,0.6,1.8,1,2.7c0.4,1.1,0.8,2.1,1.3,3.2c1,2.2,2.5,4.3,3.4,6.6
		C128.9,22.7,127.1,20.2,125.9,17.5z M130.9,17.1c0,0.2,0,0.4,0,0.6c-0.1-0.2-0.1-0.4-0.2-0.5c0,0,0,0,0-0.1s0-0.1-0.1-0.2
		c-0.2-0.7-0.5-1.4-0.7-2.1c0-0.3-0.1-0.6-0.1-0.9c0.5,0.9,0.9,1.9,1.1,2.9c0,0.1,0,0.1,0.1,0.2C130.9,17,130.9,17,130.9,17.1z
		 M132.7,23.7c0.2-0.5,0.5-1,0.7-1.4c0.1,0,0.2,0,0.2,0C133.3,22.7,133,23.2,132.7,23.7z M135.4,13.7c0-0.1,0-0.1,0-0.2l0,0
		c0.1-0.1,0.2-0.1,0.3-0.2c0,0.2-0.1,0.4-0.2,0.5C135.5,13.8,135.4,13.8,135.4,13.7C135.4,13.8,135.4,13.8,135.4,13.7z M136.3,16.4
		c-0.4,1.7-1.2,3.2-2,4.8c1.1-2.3,1.9-4.7,2.5-7.1C136.6,14.9,136.5,15.7,136.3,16.4z"/>
	<path class="st2" d="M149.9,15.8c-0.4,0-0.7,0.2-1,0.3c-1,0.6-1.5,2.1-0.8,3.1c0.4,0.6,1.1,0.9,1.8,0.9c0.5,0,1-0.2,1.4-0.6
		c0.2-0.2,0.4-0.5,0.5-0.9c0.2-0.5,0.3-1.1,0.3-1.6C152.1,16,150.9,15.6,149.9,15.8z"/>
	<path class="st1" d="M93.5,14.9c-0.7-1.9-1.9-3.6-3.7-4.7c-1.6-1-3.5-1.1-4.5,0.5c-1.4,2.1,0.1,5.6,1,7.6c1.4,3.2,3.6,6,5.8,8.8
		c0.5,0.7,1.7,0.1,1.4-0.5c0.3,0.1,0.6,0,0.8-0.3c1.8-2.6,3.5-5.2,4.6-8.1c0.6-1.6,1.8-5.3,0.6-6.9C97.8,8.8,95,12.3,93.5,14.9z
		 M90.6,15.8l1,2.9c0.1,0.5,0.2,0.9,0.3,1.4c-0.3-0.8-0.6-1.5-1-2.3c0.2-0.1,0.3-0.2,0.2-0.4c-0.2-0.4-0.4-0.8-0.6-1.2
		c0-0.1,0-0.1,0-0.2C90.6,15.9,90.6,15.8,90.6,15.8L90.6,15.8z M87.6,17.5c-0.2-0.6-0.5-1.2-0.7-1.8c-0.2-0.6-0.3-1.2-0.4-1.7
		c-0.3-0.6-0.2-1,0.3-1.3c0.2,0.9,0.6,1.8,1,2.7c0.4,1.1,0.8,2.1,1.3,3.2c1,2.2,2.5,4.3,3.4,6.6C90.6,22.7,88.7,20.2,87.6,17.5z
		 M92.6,17.1c0,0.2,0,0.4,0,0.6c-0.1-0.2-0.1-0.4-0.2-0.5c0,0,0,0,0-0.1s0-0.1-0.1-0.2c-0.2-0.7-0.5-1.4-0.7-2.1
		c0-0.3-0.1-0.6-0.1-0.9c0.5,0.9,0.9,1.9,1.1,2.9c0,0.1,0,0.1,0.1,0.2C92.6,17,92.6,17,92.6,17.1z M94.3,23.7c0.2-0.5,0.5-1,0.7-1.4
		c0.1,0,0.2,0,0.2,0C95,22.7,94.7,23.2,94.3,23.7z M97.1,13.7c0-0.1,0-0.1,0-0.2l0,0c0.1-0.1,0.2-0.1,0.3-0.2c0,0.2-0.1,0.4-0.2,0.5
		C97.2,13.8,97.1,13.8,97.1,13.7C97,13.8,97.1,13.8,97.1,13.7z M97.9,16.4c-0.4,1.7-1.2,3.2-2,4.8c1.1-2.3,1.9-4.7,2.5-7.1
		C98.3,14.9,98.1,15.7,97.9,16.4z"/>
	<path class="st2" d="M111.6,15.8c-0.4,0-0.7,0.2-1,0.3c-1,0.6-1.5,2.1-0.8,3.1c0.4,0.6,1.1,0.9,1.8,0.9c0.5,0,1-0.2,1.4-0.6
		c0.2-0.2,0.4-0.5,0.5-0.9c0.2-0.5,0.3-1.1,0.3-1.6C113.7,16,112.6,15.6,111.6,15.8z"/>
	<path class="st1" d="M55.2,14.9c-0.7-1.9-1.9-3.6-3.7-4.7C49.9,9.2,48,9,47,10.7c-1.4,2.1,0.1,5.6,1,7.6c1.4,3.2,3.6,6,5.8,8.8
		c0.5,0.7,1.7,0.1,1.4-0.5c0.3,0.1,0.6,0,0.8-0.3c1.8-2.6,3.5-5.2,4.6-8.1c0.6-1.6,1.8-5.3,0.6-6.9C59.5,8.8,56.7,12.3,55.2,14.9z
		 M52.3,15.8l1,2.9c0.1,0.5,0.2,0.9,0.3,1.4c-0.3-0.8-0.6-1.5-1-2.3c0.2-0.1,0.3-0.2,0.2-0.4c-0.2-0.4-0.4-0.8-0.6-1.2
		c0-0.1,0-0.1,0-0.2C52.3,15.9,52.2,15.8,52.3,15.8C52.2,15.8,52.3,15.8,52.3,15.8z M49.2,17.5c-0.2-0.6-0.5-1.2-0.7-1.8
		c-0.2-0.6-0.3-1.2-0.4-1.7c-0.3-0.6-0.2-1,0.3-1.3c0.2,0.9,0.6,1.8,1,2.7c0.4,1.1,0.8,2.1,1.3,3.2c1,2.2,2.5,4.3,3.4,6.6
		C52.3,22.7,50.4,20.2,49.2,17.5z M54.2,17.1c0,0.2,0,0.4,0,0.6c-0.1-0.2-0.1-0.4-0.2-0.5c0,0,0,0,0-0.1s0-0.1-0.1-0.2
		c-0.2-0.7-0.5-1.4-0.7-2.1c0-0.3-0.1-0.6-0.1-0.9c0.5,0.9,0.9,1.9,1.1,2.9c0,0.1,0,0.1,0.1,0.2C54.2,17,54.2,17,54.2,17.1z
		 M56,23.7c0.2-0.5,0.5-1,0.7-1.4c0.1,0,0.2,0,0.2,0C56.6,22.7,56.3,23.2,56,23.7z M58.7,13.7c0-0.1,0-0.1,0-0.2l0,0
		c0.1-0.1,0.2-0.1,0.3-0.2c0,0.2-0.1,0.4-0.2,0.5C58.9,13.8,58.8,13.8,58.7,13.7C58.7,13.8,58.7,13.8,58.7,13.7z M59.6,16.4
		c-0.4,1.7-1.2,3.2-2,4.8c1.1-2.3,1.9-4.7,2.5-7.1C60,14.9,59.8,15.7,59.6,16.4z"/>
	<path class="st2" d="M73.2,15.8c-0.4,0-0.7,0.2-1,0.3c-1,0.6-1.5,2.1-0.8,3.1c0.4,0.6,1.1,0.9,1.8,0.9c0.5,0,1-0.2,1.4-0.6
		c0.2-0.2,0.4-0.5,0.5-0.9c0.2-0.5,0.3-1.1,0.3-1.6C75.4,16,74.2,15.6,73.2,15.8z"/>
	<path class="st1" d="M16.9,14.9c-0.7-1.9-1.9-3.6-3.7-4.7c-1.6-1-3.5-1.1-4.5,0.5c-1.4,2.1,0.1,5.6,1,7.6c1.4,3.2,3.6,6,5.8,8.8
		c0.5,0.7,1.7,0.1,1.4-0.5c0.3,0.1,0.6,0,0.8-0.3c1.8-2.6,3.5-5.2,4.6-8.1c0.6-1.6,1.8-5.3,0.6-6.9C21.1,8.8,18.3,12.3,16.9,14.9z
		 M14,15.8l1,2.9c0.1,0.5,0.2,0.9,0.3,1.4c-0.3-0.8-0.6-1.5-1-2.3c0.2-0.1,0.3-0.2,0.2-0.4c-0.2-0.4-0.4-0.8-0.6-1.2
		c0-0.1,0-0.1,0-0.2S13.9,15.8,14,15.8C13.9,15.8,13.9,15.8,14,15.8z M10.9,17.5c-0.2-0.6-0.5-1.2-0.7-1.8S9.9,14.5,9.8,14
		c-0.3-0.6-0.2-1,0.3-1.3c0.2,0.9,0.6,1.8,1,2.7c0.4,1.1,0.8,2.1,1.3,3.2c1,2.2,2.5,4.3,3.4,6.6C13.9,22.7,12.1,20.2,10.9,17.5z
		 M15.9,17.1c0,0.2,0,0.4,0,0.6c-0.1-0.2-0.1-0.4-0.2-0.5c0,0,0,0,0-0.1s0-0.1-0.1-0.2c-0.2-0.7-0.5-1.4-0.7-2.1
		c0-0.3-0.1-0.6-0.1-0.9c0.5,0.9,0.9,1.9,1.1,2.9c0,0.1,0,0.1,0.1,0.2C15.9,17,15.9,17,15.9,17.1z M17.7,23.7c0.2-0.5,0.5-1,0.7-1.4
		c0.1,0,0.2,0,0.2,0C18.3,22.7,18,23.2,17.7,23.7z M20.4,13.7c0-0.1,0-0.1,0-0.2l0,0c0.1-0.1,0.2-0.1,0.3-0.2c0,0.2-0.1,0.4-0.2,0.5
		C20.5,13.8,20.5,13.8,20.4,13.7C20.4,13.8,20.4,13.8,20.4,13.7z M21.3,16.4c-0.4,1.7-1.2,3.2-2,4.8c1.1-2.3,1.9-4.7,2.5-7.1
		C21.7,14.9,21.5,15.7,21.3,16.4z"/>
	<path class="st2" d="M34.9,15.8c-0.4,0-0.7,0.2-1,0.3c-1,0.6-1.5,2.1-0.8,3.1c0.4,0.6,1.1,0.9,1.8,0.9c0.5,0,1-0.2,1.4-0.6
		c0.2-0.2,0.4-0.5,0.5-0.9c0.2-0.5,0.3-1.1,0.3-1.6C37.1,16,35.9,15.6,34.9,15.8z"/>
	<g>
		<path class="st2" d="M264.9,55.2c-0.4,0-0.7,0.2-1,0.3c-1,0.6-1.5,2.1-0.8,3.1c0.4,0.6,1.1,0.9,1.8,0.9c0.5,0,1-0.2,1.4-0.6
			c0.2-0.2,0.4-0.5,0.5-0.9c0.2-0.5,0.3-1.1,0.3-1.6C267,55.4,265.9,55,264.9,55.2z"/>
		<path class="st1" d="M16.9,54.3c-0.7-1.9-1.9-3.6-3.7-4.7c-1.6-1-3.5-1.1-4.5,0.5c-1.4,2.1,0.1,5.6,1,7.6c1.4,3.2,3.6,6,5.8,8.8
			c0.5,0.7,1.7,0.1,1.4-0.5c0.3,0.1,0.6,0,0.8-0.3c1.8-2.6,3.5-5.2,4.6-8.1c0.6-1.6,1.8-5.3,0.6-6.9C21.1,48.2,18.3,51.7,16.9,54.3z
			 M14,55.2l1,2.9c0.1,0.5,0.2,0.9,0.3,1.4c-0.3-0.8-0.6-1.5-1-2.3c0.2-0.1,0.3-0.2,0.2-0.4c-0.2-0.4-0.4-0.8-0.6-1.2
			c0-0.1,0-0.1,0-0.2S13.9,55.2,14,55.2C13.9,55.2,13.9,55.2,14,55.2z M10.9,56.9c-0.2-0.6-0.5-1.2-0.7-1.8s-0.3-1.2-0.4-1.7
			c-0.3-0.6-0.2-1,0.3-1.3c0.2,0.9,0.6,1.8,1,2.7c0.4,1.1,0.8,2.1,1.3,3.2c1,2.2,2.5,4.3,3.4,6.6C13.9,62.1,12.1,59.6,10.9,56.9z
			 M15.9,56.5c0,0.2,0,0.4,0,0.6c-0.1-0.2-0.1-0.4-0.2-0.5c0,0,0,0,0-0.1s0-0.1-0.1-0.2c-0.2-0.7-0.5-1.4-0.7-2.1
			c0-0.3-0.1-0.6-0.1-0.9c0.5,0.9,0.9,1.9,1.1,2.9c0,0.1,0,0.1,0.1,0.2C15.9,56.4,15.9,56.4,15.9,56.5z M17.7,63.1
			c0.2-0.5,0.5-1,0.7-1.4c0.1,0,0.2,0,0.2,0C18.3,62.1,18,62.6,17.7,63.1z M20.4,53.1c0-0.1,0-0.1,0-0.2l0,0
			c0.1-0.1,0.2-0.1,0.3-0.2C20.7,52.9,20.6,53.1,20.4,53.1C20.5,53.2,20.5,53.2,20.4,53.1C20.4,53.2,20.4,53.2,20.4,53.1z
			 M21.3,55.8c-0.4,1.7-1.2,3.2-2,4.8c1.1-2.3,1.9-4.7,2.5-7.1C21.7,54.3,21.5,55.1,21.3,55.8z"/>
	</g>
	<g>
		<path class="st2" d="M270.9,37.5c-0.3-2.5-1.9-4.6-4.1-5.8c-0.6-0.5-1.3-0.8-2-1.1c-2-0.7-4.1-0.3-5.2,1.9c-0.7,1.4-1,3.1-0.9,4.9
			c0.1,2.8,1.3,5.6,3.8,6.7c0.8,0.3,1.5,0.5,2.3,0.5c2.8,0,5.4-2.1,6-5.1C271,38.9,271,38.2,270.9,37.5z"/>
		<path class="st2" d="M15.9,36c-0.2-0.3-0.6-0.6-1-0.5c-0.8,0.1-1.2,0.9-1.3,1.6c0,0.1,0,0.3,0,0.4c0.1,0.6,0.4,1.2,1.1,1.5
			c0.7,0.2,1.4-0.1,1.7-0.7c0.1-0.2,0.1-0.3,0.1-0.5l0,0c0-0.1,0-0.1,0-0.2C16.6,37,16.4,36.3,15.9,36z"/>
	</g>
	<g>
		<path class="st2" d="M264.9,95.7c-0.4,0-0.7,0.2-1,0.3c-1,0.6-1.5,2.1-0.8,3.1c0.4,0.6,1.1,0.9,1.8,0.9c0.5,0,1-0.2,1.4-0.6
			c0.2-0.2,0.4-0.5,0.5-0.9c0.2-0.5,0.3-1.1,0.3-1.6C267,95.9,265.9,95.5,264.9,95.7z"/>
		<path class="st1" d="M16.9,94.8c-0.7-1.9-1.9-3.6-3.7-4.7c-1.6-1-3.5-1.1-4.5,0.5c-1.4,2.1,0.1,5.6,1,7.6c1.4,3.2,3.6,6,5.8,8.8
			c0.5,0.7,1.7,0.1,1.4-0.5c0.3,0.1,0.6,0,0.8-0.3c1.8-2.6,3.5-5.2,4.6-8.1c0.6-1.6,1.8-5.3,0.6-6.9C21.1,88.7,18.3,92.2,16.9,94.8z
			 M14,95.7l1,2.9c0.1,0.5,0.2,0.9,0.3,1.4c-0.3-0.8-0.6-1.5-1-2.3c0.2-0.1,0.3-0.2,0.2-0.4c-0.2-0.4-0.4-0.8-0.6-1.2
			c0-0.1,0-0.1,0-0.2S13.9,95.7,14,95.7C13.9,95.7,13.9,95.7,14,95.7z M10.9,97.4c-0.2-0.6-0.5-1.2-0.7-1.8C10,95,9.9,94.4,9.8,93.9
			c-0.3-0.6-0.2-1,0.3-1.3c0.2,0.9,0.6,1.8,1,2.7c0.4,1.1,0.8,2.1,1.3,3.2c1,2.2,2.5,4.3,3.4,6.6C13.9,102.6,12.1,100.1,10.9,97.4z
			 M15.9,97c0,0.2,0,0.4,0,0.6c-0.1-0.2-0.1-0.4-0.2-0.5c0,0,0,0,0-0.1s0-0.1-0.1-0.2c-0.2-0.7-0.5-1.4-0.7-2.1
			c0-0.3-0.1-0.6-0.1-0.9c0.5,0.9,0.9,1.9,1.1,2.9c0,0.1,0,0.1,0.1,0.2C15.9,96.9,15.9,96.9,15.9,97z M17.7,103.6
			c0.2-0.5,0.5-1,0.7-1.4c0.1,0,0.2,0,0.2,0C18.3,102.6,18,103.1,17.7,103.6z M20.4,93.6c0-0.1,0-0.1,0-0.2l0,0
			c0.1-0.1,0.2-0.1,0.3-0.2c0,0.2-0.1,0.4-0.2,0.5C20.5,93.7,20.5,93.7,20.4,93.6C20.4,93.7,20.4,93.7,20.4,93.6z M21.3,96.3
			c-0.4,1.7-1.2,3.2-2,4.8c1.1-2.3,1.9-4.7,2.5-7.1C21.7,94.8,21.5,95.6,21.3,96.3z"/>
	</g>
	<g>
		<path class="st2" d="M270.9,78c-0.3-2.5-1.9-4.6-4.1-5.8c-0.6-0.5-1.3-0.8-2-1.1c-2-0.7-4.1-0.3-5.2,1.9c-0.7,1.4-1,3.1-0.9,4.9
			c0.1,2.8,1.3,5.6,3.8,6.7c0.8,0.3,1.5,0.5,2.3,0.5c2.8,0,5.4-2.1,6-5.1C271,79.4,271,78.7,270.9,78z"/>
		<path class="st2" d="M15.9,76.5c-0.2-0.3-0.6-0.6-1-0.5c-0.8,0.1-1.2,0.9-1.3,1.6c0,0.1,0,0.3,0,0.4c0.1,0.6,0.4,1.2,1.1,1.5
			c0.7,0.2,1.4-0.1,1.7-0.7c0.1-0.2,0.1-0.3,0.1-0.5l0,0c0-0.1,0-0.1,0-0.2C16.6,77.5,16.4,76.8,15.9,76.5z"/>
	</g>
	<g>
		<path class="st2" d="M264.9,136.2c-0.4,0-0.7,0.2-1,0.3c-1,0.6-1.5,2.1-0.8,3.1c0.4,0.6,1.1,0.9,1.8,0.9c0.5,0,1-0.2,1.4-0.6
			c0.2-0.2,0.4-0.5,0.5-0.9c0.2-0.5,0.3-1.1,0.3-1.6C267,136.4,265.9,136,264.9,136.2z"/>
		<path class="st1" d="M16.9,135.3c-0.7-1.9-1.9-3.6-3.7-4.7c-1.6-1-3.5-1.1-4.5,0.5c-1.4,2.1,0.1,5.6,1,7.6c1.4,3.2,3.6,6,5.8,8.8
			c0.5,0.7,1.7,0.1,1.4-0.5c0.3,0.1,0.6,0,0.8-0.3c1.8-2.6,3.5-5.2,4.6-8.1c0.6-1.6,1.8-5.3,0.6-6.9
			C21.1,129.2,18.3,132.7,16.9,135.3z M14,136.2l1,2.9c0.1,0.5,0.2,0.9,0.3,1.4c-0.3-0.8-0.6-1.5-1-2.3c0.2-0.1,0.3-0.2,0.2-0.4
			c-0.2-0.4-0.4-0.8-0.6-1.2c0-0.1,0-0.1,0-0.2S13.9,136.2,14,136.2C13.9,136.2,13.9,136.2,14,136.2z M10.9,137.9
			c-0.2-0.6-0.5-1.2-0.7-1.8s-0.3-1.2-0.4-1.7c-0.3-0.6-0.2-1,0.3-1.3c0.2,0.9,0.6,1.8,1,2.7c0.4,1.1,0.8,2.1,1.3,3.2
			c1,2.2,2.5,4.3,3.4,6.6C13.9,143.1,12.1,140.6,10.9,137.9z M15.9,137.5c0,0.2,0,0.4,0,0.6c-0.1-0.2-0.1-0.4-0.2-0.5c0,0,0,0,0-0.1
			s0-0.1-0.1-0.2c-0.2-0.7-0.5-1.4-0.7-2.1c0-0.3-0.1-0.6-0.1-0.9c0.5,0.9,0.9,1.9,1.1,2.9c0,0.1,0,0.1,0.1,0.2
			C15.9,137.4,15.9,137.4,15.9,137.5z M17.7,144.1c0.2-0.5,0.5-1,0.7-1.4c0.1,0,0.2,0,0.2,0C18.3,143.1,18,143.6,17.7,144.1z
			 M20.4,134.1c0-0.1,0-0.1,0-0.2l0,0c0.1-0.1,0.2-0.1,0.3-0.2c0,0.2-0.1,0.4-0.2,0.5C20.5,134.2,20.5,134.2,20.4,134.1
			C20.4,134.2,20.4,134.2,20.4,134.1z M21.3,136.8c-0.4,1.7-1.2,3.2-2,4.8c1.1-2.3,1.9-4.7,2.5-7.1
			C21.7,135.3,21.5,136.1,21.3,136.8z"/>
	</g>
	<g>
		<path class="st2" d="M270.9,118.5c-0.3-2.5-1.9-4.6-4.1-5.8c-0.6-0.5-1.3-0.8-2-1.1c-2-0.7-4.1-0.3-5.2,1.9
			c-0.7,1.4-1,3.1-0.9,4.9c0.1,2.8,1.3,5.6,3.8,6.7c0.8,0.3,1.5,0.5,2.3,0.5c2.8,0,5.4-2.1,6-5.1C271,119.9,271,119.2,270.9,118.5z"
			/>
		<path class="st2" d="M15.9,117c-0.2-0.3-0.6-0.6-1-0.5c-0.8,0.1-1.2,0.9-1.3,1.6c0,0.1,0,0.3,0,0.4c0.1,0.6,0.4,1.2,1.1,1.5
			c0.7,0.2,1.4-0.1,1.7-0.7c0.1-0.2,0.1-0.3,0.1-0.5l0,0c0-0.1,0-0.1,0-0.2C16.6,118,16.4,117.3,15.9,117z"/>
	</g>
	<g>
		<path class="st2" d="M264.9,176.6c-0.4,0-0.7,0.2-1,0.3c-1,0.6-1.5,2.1-0.8,3.1c0.4,0.6,1.1,0.9,1.8,0.9c0.5,0,1-0.2,1.4-0.6
			c0.2-0.2,0.4-0.5,0.5-0.9c0.2-0.5,0.3-1.1,0.3-1.6C267,176.9,265.9,176.5,264.9,176.6z"/>
		<path class="st1" d="M16.9,175.8c-0.7-1.9-1.9-3.6-3.7-4.7c-1.6-1-3.5-1.1-4.5,0.5c-1.4,2.1,0.1,5.6,1,7.6c1.4,3.2,3.6,6,5.8,8.8
			c0.5,0.7,1.7,0.1,1.4-0.5c0.3,0.1,0.6,0,0.8-0.3c1.8-2.6,3.5-5.2,4.6-8.1c0.6-1.6,1.8-5.3,0.6-6.9
			C21.1,169.7,18.3,173.2,16.9,175.8z M14,176.7l1,2.9c0.1,0.5,0.2,0.9,0.3,1.4c-0.3-0.8-0.6-1.5-1-2.3c0.2-0.1,0.3-0.2,0.2-0.4
			c-0.2-0.4-0.4-0.8-0.6-1.2c0-0.1,0-0.1,0-0.2S13.9,176.7,14,176.7C13.9,176.7,13.9,176.7,14,176.7z M10.9,178.4
			c-0.2-0.6-0.5-1.2-0.7-1.8s-0.3-1.2-0.4-1.7c-0.3-0.6-0.2-1,0.3-1.3c0.2,0.9,0.6,1.8,1,2.7c0.4,1.1,0.8,2.1,1.3,3.2
			c1,2.2,2.5,4.3,3.4,6.6C13.9,183.6,12.1,181.1,10.9,178.4z M15.9,178c0,0.2,0,0.4,0,0.6c-0.1-0.2-0.1-0.4-0.2-0.5c0,0,0,0,0-0.1
			s0-0.1-0.1-0.2c-0.2-0.7-0.5-1.4-0.7-2.1c0-0.3-0.1-0.6-0.1-0.9c0.5,0.9,0.9,1.9,1.1,2.9c0,0.1,0,0.1,0.1,0.2
			C15.9,177.8,15.9,177.9,15.9,178z M17.7,184.6c0.2-0.5,0.5-1,0.7-1.4c0.1,0,0.2,0,0.2,0C18.3,183.6,18,184.1,17.7,184.6z
			 M20.4,174.6c0-0.1,0-0.1,0-0.2l0,0c0.1-0.1,0.2-0.1,0.3-0.2c0,0.2-0.1,0.4-0.2,0.5C20.5,174.7,20.5,174.7,20.4,174.6
			C20.4,174.7,20.4,174.6,20.4,174.6z M21.3,177.3c-0.4,1.7-1.2,3.2-2,4.8c1.1-2.3,1.9-4.7,2.5-7.1
			C21.7,175.7,21.5,176.6,21.3,177.3z"/>
	</g>
	<g>
		<path class="st2" d="M270.9,159c-0.3-2.5-1.9-4.6-4.1-5.8c-0.6-0.5-1.3-0.8-2-1.1c-2-0.7-4.1-0.3-5.2,1.9c-0.7,1.4-1,3.1-0.9,4.9
			c0.1,2.8,1.3,5.6,3.8,6.7c0.8,0.3,1.5,0.5,2.3,0.5c2.8,0,5.4-2.1,6-5.1C271,160.4,271,159.7,270.9,159z"/>
		<path class="st2" d="M15.9,157.5c-0.2-0.3-0.6-0.6-1-0.5c-0.8,0.1-1.2,0.9-1.3,1.6c0,0.1,0,0.3,0,0.4c0.1,0.6,0.4,1.2,1.1,1.5
			c0.7,0.2,1.4-0.1,1.7-0.7c0.1-0.2,0.1-0.3,0.1-0.5l0,0c0-0.1,0-0.1,0-0.2C16.6,158.5,16.4,157.8,15.9,157.5z"/>
	</g>
	<g>
		<path class="st2" d="M270.9,203.5c-0.3-2.5-1.9-4.6-4.1-5.8c-0.6-0.5-1.3-0.8-2-1.1c-2-0.7-4.1-0.3-5.2,1.9
			c-0.7,1.4-1,3.1-0.9,4.9c0.1,2.8,1.3,5.6,3.8,6.7c0.8,0.3,1.5,0.5,2.3,0.5c2.8,0,5.4-2.1,6-5.1C271,204.8,271,204.1,270.9,203.5z"
			/>
		<path class="st2" d="M245.9,201.9c-0.2-0.3-0.6-0.6-1-0.5c-0.8,0.1-1.2,0.9-1.3,1.6c0,0.1,0,0.3,0,0.4c0.1,0.6,0.4,1.2,1.1,1.5
			c0.7,0.2,1.4-0.1,1.7-0.7c0.1-0.2,0.1-0.3,0.1-0.5l0,0c0-0.1,0-0.1,0-0.2C246.5,202.9,246.3,202.2,245.9,201.9z"/>
		<path class="st2" d="M232.6,203.5c-0.3-2.5-1.9-4.6-4.1-5.8c-0.6-0.5-1.3-0.8-2-1.1c-2-0.7-4.1-0.3-5.2,1.9
			c-0.7,1.4-1,3.1-0.9,4.9c0.1,2.8,1.3,5.6,3.8,6.7c0.8,0.3,1.5,0.5,2.3,0.5c2.8,0,5.4-2.1,6-5.1
			C232.7,204.8,232.7,204.1,232.6,203.5z"/>
		<path class="st2" d="M207.5,201.9c-0.2-0.3-0.6-0.6-1-0.5c-0.8,0.1-1.2,0.9-1.3,1.6c0,0.1,0,0.3,0,0.4c0.1,0.6,0.4,1.2,1.1,1.5
			c0.7,0.2,1.4-0.1,1.7-0.7c0.1-0.2,0.1-0.3,0.1-0.5l0,0c0-0.1,0-0.1,0-0.2C208.2,202.9,208,202.2,207.5,201.9z"/>
		<path class="st2" d="M194.3,203.5c-0.3-2.5-1.9-4.6-4.1-5.8c-0.6-0.5-1.3-0.8-2-1.1c-2-0.7-4.1-0.3-5.2,1.9
			c-0.7,1.4-1,3.1-0.9,4.9c0.1,2.8,1.3,5.6,3.8,6.7c0.8,0.3,1.5,0.5,2.3,0.5c2.8,0,5.4-2.1,6-5.1
			C194.3,204.8,194.3,204.1,194.3,203.5z"/>
		<path class="st2" d="M169.2,201.9c-0.2-0.3-0.6-0.6-1-0.5c-0.8,0.1-1.2,0.9-1.3,1.6c0,0.1,0,0.3,0,0.4c0.1,0.6,0.4,1.2,1.1,1.5
			c0.7,0.2,1.4-0.1,1.7-0.7c0.1-0.2,0.1-0.3,0.1-0.5l0,0c0-0.1,0-0.1,0-0.2C169.9,202.9,169.7,202.2,169.2,201.9z"/>
		<path class="st2" d="M155.9,203.5c-0.3-2.5-1.9-4.6-4.1-5.8c-0.6-0.5-1.3-0.8-2-1.1c-2-0.7-4.1-0.3-5.2,1.9
			c-0.7,1.4-1,3.1-0.9,4.9c0.1,2.8,1.3,5.6,3.8,6.7c0.8,0.3,1.5,0.5,2.3,0.5c2.8,0,5.4-2.1,6-5.1C156,204.8,156,204.1,155.9,203.5z"
			/>
		<path class="st2" d="M130.9,201.9c-0.2-0.3-0.6-0.6-1-0.5c-0.8,0.1-1.2,0.9-1.3,1.6c0,0.1,0,0.3,0,0.4c0.1,0.6,0.4,1.2,1.1,1.5
			c0.7,0.2,1.4-0.1,1.7-0.7c0.1-0.2,0.1-0.3,0.1-0.5l0,0c0-0.1,0-0.1,0-0.2C131.6,202.9,131.4,202.2,130.9,201.9z"/>
		<path class="st2" d="M117.6,203.5c-0.3-2.5-1.9-4.6-4.1-5.8c-0.6-0.5-1.3-0.8-2-1.1c-2-0.7-4.1-0.3-5.2,1.9
			c-0.7,1.4-1,3.1-0.9,4.9c0.1,2.8,1.3,5.6,3.8,6.7c0.8,0.3,1.5,0.5,2.3,0.5c2.8,0,5.4-2.1,6-5.1
			C117.7,204.8,117.7,204.1,117.6,203.5z"/>
		<path class="st2" d="M92.5,201.9c-0.2-0.3-0.6-0.6-1-0.5c-0.8,0.1-1.2,0.9-1.3,1.6c0,0.1,0,0.3,0,0.4c0.1,0.6,0.4,1.2,1.1,1.5
			c0.7,0.2,1.4-0.1,1.7-0.7c0.1-0.2,0.1-0.3,0.1-0.5l0,0c0-0.1,0-0.1,0-0.2C93.2,202.9,93,202.2,92.5,201.9z"/>
		<path class="st2" d="M79.3,203.5c-0.3-2.5-1.9-4.6-4.1-5.8c-0.6-0.5-1.3-0.8-2-1.1c-2-0.7-4.1-0.3-5.2,1.9c-0.7,1.4-1,3.1-0.9,4.9
			c0.1,2.8,1.3,5.6,3.8,6.7c0.8,0.3,1.5,0.5,2.3,0.5c2.8,0,5.4-2.1,6-5.1C79.3,204.8,79.4,204.1,79.3,203.5z"/>
		<path class="st2" d="M54.2,201.9c-0.2-0.3-0.6-0.6-1-0.5c-0.8,0.1-1.2,0.9-1.3,1.6c0,0.1,0,0.3,0,0.4c0.1,0.6,0.4,1.2,1.1,1.5
			c0.7,0.2,1.4-0.1,1.7-0.7c0.1-0.2,0.1-0.3,0.1-0.5l0,0c0-0.1,0-0.1,0-0.2C54.9,202.9,54.7,202.2,54.2,201.9z"/>
		<path class="st2" d="M41,203.5c-0.3-2.5-1.9-4.6-4.1-5.8c-0.6-0.5-1.3-0.8-2-1.1c-2-0.7-4.1-0.3-5.2,1.9c-0.7,1.4-1,3.1-0.9,4.9
			c0.1,2.8,1.3,5.6,3.8,6.7c0.8,0.3,1.5,0.5,2.3,0.5c2.8,0,5.4-2.1,6-5.1C41,204.8,41,204.1,41,203.5z"/>
		<path class="st2" d="M15.9,201.9c-0.2-0.3-0.6-0.6-1-0.5c-0.8,0.1-1.2,0.9-1.3,1.6c0,0.1,0,0.3,0,0.4c0.1,0.6,0.4,1.2,1.1,1.5
			c0.7,0.2,1.4-0.1,1.7-0.7c0.1-0.2,0.1-0.3,0.1-0.5l0,0c0-0.1,0-0.1,0-0.2C16.6,202.9,16.4,202.2,15.9,201.9z"/>
	</g>
	<rect x="50" y="52.5" class="st3" width="181" height="24"/>
	<rect x="50" y="89.1" class="st3" width="181" height="89.7"/>
	<rect x="56.5" y="96.6" class="st3" width="167" height="79.2"/>
</g>
</svg>
