<?xml version="1.0" encoding="utf-8"?>
<!-- Generator: Adobe Illustrator 21.1.0, SVG Export Plug-In . SVG Version: 6.00 Build 0)  -->
<svg version="1.1" id="Layer_1" xmlns="http://www.w3.org/2000/svg" xmlns:xlink="http://www.w3.org/1999/xlink" x="0px" y="0px"
	 viewBox="0 0 280 220" style="enable-background:new 0 0 280 220;" xml:space="preserve">
<style type="text/css">
	.st0{fill:#FFFFFF;}
	.st1{fill:#DAB668;}
	.st2{fill:#010101;}
	.st3{fill:none;}
	.st4{enable-background:new    ;}
	.st5{fill:#D6A136;}
	.st6{fill:#616161;}
</style>
<g id="Layer_2">
</g>
<g id="Layer_1_1_">
	<rect class="st0" width="280" height="220"/>
	<title>Group 2</title>
	<desc>Created with Sketch.</desc>
	<path class="st1" d="M246.9,14.9c-0.7-1.9-1.9-3.6-3.7-4.7c-1.6-1-3.5-1.1-4.5,0.5c-1.4,2.1,0.1,5.6,1,7.6c1.4,3.2,3.6,6,5.8,8.8
		c0.5,0.7,1.7,0.1,1.4-0.5c0.3,0.1,0.6,0,0.8-0.3c1.8-2.6,3.5-5.2,4.6-8.1c0.6-1.6,1.8-5.3,0.6-6.9C251.1,8.8,248.3,12.3,246.9,14.9
		z M244,15.8l1,2.9c0.1,0.5,0.2,0.9,0.3,1.4c-0.3-0.8-0.6-1.5-1-2.3c0.2-0.1,0.3-0.2,0.2-0.4c-0.2-0.4-0.4-0.8-0.6-1.2
		c0-0.1,0-0.1,0-0.2S243.9,15.8,244,15.8C243.9,15.8,243.9,15.8,244,15.8z M240.9,17.5c-0.2-0.6-0.5-1.2-0.7-1.8
		c-0.2-0.6-0.3-1.2-0.4-1.7c-0.3-0.6-0.2-1,0.3-1.3c0.2,0.9,0.6,1.8,1,2.7c0.4,1.1,0.8,2.1,1.3,3.2c1,2.2,2.5,4.3,3.4,6.6
		C243.9,22.7,242.1,20.2,240.9,17.5z M245.9,17.1c0,0.2,0,0.4,0,0.6c-0.1-0.2-0.1-0.4-0.2-0.5c0,0,0,0,0-0.1s0-0.1-0.1-0.2
		c-0.2-0.7-0.5-1.4-0.7-2.1c0-0.3-0.1-0.6-0.1-0.9c0.5,0.9,0.9,1.9,1.1,2.9c0,0.1,0,0.1,0.1,0.2C245.9,17,245.9,17,245.9,17.1z
		 M247.7,23.7c0.2-0.5,0.5-1,0.7-1.4c0.1,0,0.2,0,0.2,0C248.3,22.7,248,23.2,247.7,23.7z M250.4,13.7c0-0.1,0-0.1,0-0.2l0,0
		c0.1-0.1,0.2-0.1,0.3-0.2c0,0.2-0.1,0.4-0.2,0.5C250.5,13.8,250.4,13.8,250.4,13.7C250.4,13.8,250.4,13.8,250.4,13.7z M251.3,16.4
		c-0.4,1.7-1.2,3.2-2,4.8c1.1-2.3,1.9-4.7,2.5-7.1C251.6,14.9,251.4,15.7,251.3,16.4z"/>
	<path class="st2" d="M264.9,15.8c-0.4,0-0.7,0.2-1,0.3c-1,0.6-1.5,2.1-0.8,3.1c0.4,0.6,1.1,0.9,1.8,0.9c0.5,0,1-0.2,1.4-0.6
		c0.2-0.2,0.4-0.5,0.5-0.9c0.2-0.5,0.3-1.1,0.3-1.6C267,16,265.9,15.6,264.9,15.8z"/>
	<path class="st1" d="M208.5,14.9c-0.7-1.9-1.9-3.6-3.7-4.7c-1.6-1-3.5-1.1-4.5,0.5c-1.4,2.1,0.1,5.6,1,7.6c1.4,3.2,3.6,6,5.8,8.8
		c0.5,0.7,1.7,0.1,1.4-0.5c0.3,0.1,0.6,0,0.8-0.3c1.8-2.6,3.5-5.2,4.6-8.1c0.6-1.6,1.8-5.3,0.6-6.9C212.8,8.8,210,12.3,208.5,14.9z
		 M205.6,15.8l1,2.9c0.1,0.5,0.2,0.9,0.3,1.4c-0.3-0.8-0.6-1.5-1-2.3c0.2-0.1,0.3-0.2,0.2-0.4c-0.2-0.4-0.4-0.8-0.6-1.2
		c0-0.1,0-0.1,0-0.2C205.6,15.9,205.5,15.8,205.6,15.8L205.6,15.8z M202.6,17.5c-0.2-0.6-0.5-1.2-0.7-1.8c-0.2-0.6-0.3-1.2-0.4-1.7
		c-0.3-0.6-0.2-1,0.3-1.3c0.2,0.9,0.6,1.8,1,2.7c0.4,1.1,0.8,2.1,1.3,3.2c1,2.2,2.5,4.3,3.4,6.6C205.6,22.7,203.7,20.2,202.6,17.5z
		 M207.5,17.1c0,0.2,0,0.4,0,0.6c-0.1-0.2-0.1-0.4-0.2-0.5c0,0,0,0,0-0.1s0-0.1-0.1-0.2c-0.2-0.7-0.5-1.4-0.7-2.1
		c0-0.3-0.1-0.6-0.1-0.9c0.5,0.9,0.9,1.9,1.1,2.9c0,0.1,0,0.1,0.1,0.2C207.6,17,207.5,17,207.5,17.1z M209.3,23.7
		c0.2-0.5,0.5-1,0.7-1.4c0.1,0,0.2,0,0.2,0C210,22.7,209.7,23.2,209.3,23.7z M212.1,13.7c0-0.1,0-0.1,0-0.2l0,0
		c0.1-0.1,0.2-0.1,0.3-0.2c0,0.2-0.1,0.4-0.2,0.5C212.2,13.8,212.1,13.8,212.1,13.7C212,13.8,212,13.8,212.1,13.7z M212.9,16.4
		c-0.4,1.7-1.2,3.2-2,4.8c1.1-2.3,1.9-4.7,2.5-7.1C213.3,14.9,213.1,15.7,212.9,16.4z"/>
	<path class="st2" d="M226.5,15.8c-0.4,0-0.7,0.2-1,0.3c-1,0.6-1.5,2.1-0.8,3.1c0.4,0.6,1.1,0.9,1.8,0.9c0.5,0,1-0.2,1.4-0.6
		c0.2-0.2,0.4-0.5,0.5-0.9c0.2-0.5,0.3-1.1,0.3-1.6C228.7,16,227.6,15.6,226.5,15.8z"/>
	<path class="st1" d="M170.2,14.9c-0.7-1.9-1.9-3.6-3.7-4.7c-1.6-1-3.5-1.1-4.5,0.5c-1.4,2.1,0.1,5.6,1,7.6c1.4,3.2,3.6,6,5.8,8.8
		c0.5,0.7,1.7,0.1,1.4-0.5c0.3,0.1,0.6,0,0.8-0.3c1.8-2.6,3.5-5.2,4.6-8.1c0.6-1.6,1.8-5.3,0.6-6.9C174.5,8.8,171.7,12.3,170.2,14.9
		z M167.3,15.8l1,2.9c0.1,0.5,0.2,0.9,0.3,1.4c-0.3-0.8-0.6-1.5-1-2.3c0.2-0.1,0.3-0.2,0.2-0.4c-0.2-0.4-0.4-0.8-0.6-1.2
		c0-0.1,0-0.1,0-0.2S167.2,15.8,167.3,15.8C167.2,15.8,167.3,15.8,167.3,15.8z M164.2,17.5c-0.2-0.6-0.5-1.2-0.7-1.8
		c-0.2-0.6-0.3-1.2-0.4-1.7c-0.3-0.6-0.2-1,0.3-1.3c0.2,0.9,0.6,1.8,1,2.7c0.4,1.1,0.8,2.1,1.3,3.2c1,2.2,2.5,4.3,3.4,6.6
		C167.2,22.7,165.4,20.2,164.2,17.5z M169.2,17.1c0,0.2,0,0.4,0,0.6c-0.1-0.2-0.1-0.4-0.2-0.5c0,0,0,0,0-0.1s0-0.1-0.1-0.2
		c-0.2-0.7-0.5-1.4-0.7-2.1c0-0.3-0.1-0.6-0.1-0.9c0.5,0.9,0.9,1.9,1.1,2.9c0,0.1,0,0.1,0.1,0.2C169.2,17,169.2,17,169.2,17.1z
		 M171,23.7c0.2-0.5,0.5-1,0.7-1.4c0.1,0,0.2,0,0.2,0C171.6,22.7,171.3,23.2,171,23.7z M173.7,13.7c0-0.1,0-0.1,0-0.2l0,0
		c0.1-0.1,0.2-0.1,0.3-0.2c0,0.2-0.1,0.4-0.2,0.5C173.9,13.8,173.8,13.8,173.7,13.7C173.7,13.8,173.7,13.8,173.7,13.7z M174.6,16.4
		c-0.4,1.7-1.2,3.2-2,4.8c1.1-2.3,1.9-4.7,2.5-7.1C175,14.9,174.8,15.7,174.6,16.4z"/>
	<path class="st2" d="M188.2,15.8c-0.4,0-0.7,0.2-1,0.3c-1,0.6-1.5,2.1-0.8,3.1c0.4,0.6,1.1,0.9,1.8,0.9c0.5,0,1-0.2,1.4-0.6
		c0.2-0.2,0.4-0.5,0.5-0.9c0.2-0.5,0.3-1.1,0.3-1.6C190.4,16,189.2,15.6,188.2,15.8z"/>
	<path class="st1" d="M131.9,14.9c-0.7-1.9-1.9-3.6-3.7-4.7c-1.6-1-3.5-1.1-4.5,0.5c-1.4,2.1,0.1,5.6,1,7.6c1.4,3.2,3.6,6,5.8,8.8
		c0.5,0.7,1.7,0.1,1.4-0.5c0.3,0.1,0.6,0,0.8-0.3c1.8-2.6,3.5-5.2,4.6-8.1c0.6-1.6,1.8-5.3,0.6-6.9C136.1,8.8,133.3,12.3,131.9,14.9
		z M129,15.8l1,2.9c0.1,0.5,0.2,0.9,0.3,1.4c-0.3-0.8-0.6-1.5-1-2.3c0.2-0.1,0.3-0.2,0.2-0.4c-0.2-0.4-0.4-0.8-0.6-1.2
		c0-0.1,0-0.1,0-0.2S128.9,15.8,129,15.8C128.9,15.8,128.9,15.8,129,15.8z M125.9,17.5c-0.2-0.6-0.5-1.2-0.7-1.8
		c-0.2-0.6-0.3-1.2-0.4-1.7c-0.3-0.6-0.2-1,0.3-1.3c0.2,0.9,0.6,1.8,1,2.7c0.4,1.1,0.8,2.1,1.3,3.2c1,2.2,2.5,4.3,3.4,6.6
		C128.9,22.7,127.1,20.2,125.9,17.5z M130.9,17.1c0,0.2,0,0.4,0,0.6c-0.1-0.2-0.1-0.4-0.2-0.5c0,0,0,0,0-0.1s0-0.1-0.1-0.2
		c-0.2-0.7-0.5-1.4-0.7-2.1c0-0.3-0.1-0.6-0.1-0.9c0.5,0.9,0.9,1.9,1.1,2.9c0,0.1,0,0.1,0.1,0.2C130.9,17,130.9,17,130.9,17.1z
		 M132.7,23.7c0.2-0.5,0.5-1,0.7-1.4c0.1,0,0.2,0,0.2,0C133.3,22.7,133,23.2,132.7,23.7z M135.4,13.7c0-0.1,0-0.1,0-0.2l0,0
		c0.1-0.1,0.2-0.1,0.3-0.2c0,0.2-0.1,0.4-0.2,0.5C135.5,13.8,135.4,13.8,135.4,13.7C135.4,13.8,135.4,13.8,135.4,13.7z M136.3,16.4
		c-0.4,1.7-1.2,3.2-2,4.8c1.1-2.3,1.9-4.7,2.5-7.1C136.6,14.9,136.5,15.7,136.3,16.4z"/>
	<path class="st2" d="M149.9,15.8c-0.4,0-0.7,0.2-1,0.3c-1,0.6-1.5,2.1-0.8,3.1c0.4,0.6,1.1,0.9,1.8,0.9c0.5,0,1-0.2,1.4-0.6
		c0.2-0.2,0.4-0.5,0.5-0.9c0.2-0.5,0.3-1.1,0.3-1.6C152.1,16,150.9,15.6,149.9,15.8z"/>
	<path class="st1" d="M93.5,14.9c-0.7-1.9-1.9-3.6-3.7-4.7c-1.6-1-3.5-1.1-4.5,0.5c-1.4,2.1,0.1,5.6,1,7.6c1.4,3.2,3.6,6,5.8,8.8
		c0.5,0.7,1.7,0.1,1.4-0.5c0.3,0.1,0.6,0,0.8-0.3c1.8-2.6,3.5-5.2,4.6-8.1c0.6-1.6,1.8-5.3,0.6-6.9C97.8,8.8,95,12.3,93.5,14.9z
		 M90.6,15.8l1,2.9c0.1,0.5,0.2,0.9,0.3,1.4c-0.3-0.8-0.6-1.5-1-2.3c0.2-0.1,0.3-0.2,0.2-0.4c-0.2-0.4-0.4-0.8-0.6-1.2
		c0-0.1,0-0.1,0-0.2C90.6,15.9,90.6,15.8,90.6,15.8L90.6,15.8z M87.6,17.5c-0.2-0.6-0.5-1.2-0.7-1.8c-0.2-0.6-0.3-1.2-0.4-1.7
		c-0.3-0.6-0.2-1,0.3-1.3c0.2,0.9,0.6,1.8,1,2.7c0.4,1.1,0.8,2.1,1.3,3.2c1,2.2,2.5,4.3,3.4,6.6C90.6,22.7,88.7,20.2,87.6,17.5z
		 M92.6,17.1c0,0.2,0,0.4,0,0.6c-0.1-0.2-0.1-0.4-0.2-0.5c0,0,0,0,0-0.1s0-0.1-0.1-0.2c-0.2-0.7-0.5-1.4-0.7-2.1
		c0-0.3-0.1-0.6-0.1-0.9c0.5,0.9,0.9,1.9,1.1,2.9c0,0.1,0,0.1,0.1,0.2C92.6,17,92.6,17,92.6,17.1z M94.3,23.7c0.2-0.5,0.5-1,0.7-1.4
		c0.1,0,0.2,0,0.2,0C95,22.7,94.7,23.2,94.3,23.7z M97.1,13.7c0-0.1,0-0.1,0-0.2l0,0c0.1-0.1,0.2-0.1,0.3-0.2c0,0.2-0.1,0.4-0.2,0.5
		C97.2,13.8,97.1,13.8,97.1,13.7C97,13.8,97.1,13.8,97.1,13.7z M97.9,16.4c-0.4,1.7-1.2,3.2-2,4.8c1.1-2.3,1.9-4.7,2.5-7.1
		C98.3,14.9,98.1,15.7,97.9,16.4z"/>
	<path class="st2" d="M111.6,15.8c-0.4,0-0.7,0.2-1,0.3c-1,0.6-1.5,2.1-0.8,3.1c0.4,0.6,1.1,0.9,1.8,0.9c0.5,0,1-0.2,1.4-0.6
		c0.2-0.2,0.4-0.5,0.5-0.9c0.2-0.5,0.3-1.1,0.3-1.6C113.7,16,112.6,15.6,111.6,15.8z"/>
	<path class="st1" d="M55.2,14.9c-0.7-1.9-1.9-3.6-3.7-4.7C49.9,9.2,48,9,47,10.7c-1.4,2.1,0.1,5.6,1,7.6c1.4,3.2,3.6,6,5.8,8.8
		c0.5,0.7,1.7,0.1,1.4-0.5c0.3,0.1,0.6,0,0.8-0.3c1.8-2.6,3.5-5.2,4.6-8.1c0.6-1.6,1.8-5.3,0.6-6.9C59.5,8.8,56.7,12.3,55.2,14.9z
		 M52.3,15.8l1,2.9c0.1,0.5,0.2,0.9,0.3,1.4c-0.3-0.8-0.6-1.5-1-2.3c0.2-0.1,0.3-0.2,0.2-0.4c-0.2-0.4-0.4-0.8-0.6-1.2
		c0-0.1,0-0.1,0-0.2C52.3,15.9,52.2,15.8,52.3,15.8C52.2,15.8,52.3,15.8,52.3,15.8z M49.2,17.5c-0.2-0.6-0.5-1.2-0.7-1.8
		c-0.2-0.6-0.3-1.2-0.4-1.7c-0.3-0.6-0.2-1,0.3-1.3c0.2,0.9,0.6,1.8,1,2.7c0.4,1.1,0.8,2.1,1.3,3.2c1,2.2,2.5,4.3,3.4,6.6
		C52.3,22.7,50.4,20.2,49.2,17.5z M54.2,17.1c0,0.2,0,0.4,0,0.6c-0.1-0.2-0.1-0.4-0.2-0.5c0,0,0,0,0-0.1s0-0.1-0.1-0.2
		c-0.2-0.7-0.5-1.4-0.7-2.1c0-0.3-0.1-0.6-0.1-0.9c0.5,0.9,0.9,1.9,1.1,2.9c0,0.1,0,0.1,0.1,0.2C54.2,17,54.2,17,54.2,17.1z
		 M56,23.7c0.2-0.5,0.5-1,0.7-1.4c0.1,0,0.2,0,0.2,0C56.6,22.7,56.3,23.2,56,23.7z M58.7,13.7c0-0.1,0-0.1,0-0.2l0,0
		c0.1-0.1,0.2-0.1,0.3-0.2c0,0.2-0.1,0.4-0.2,0.5C58.9,13.8,58.8,13.8,58.7,13.7C58.7,13.8,58.7,13.8,58.7,13.7z M59.6,16.4
		c-0.4,1.7-1.2,3.2-2,4.8c1.1-2.3,1.9-4.7,2.5-7.1C60,14.9,59.8,15.7,59.6,16.4z"/>
	<path class="st2" d="M73.2,15.8c-0.4,0-0.7,0.2-1,0.3c-1,0.6-1.5,2.1-0.8,3.1c0.4,0.6,1.1,0.9,1.8,0.9c0.5,0,1-0.2,1.4-0.6
		c0.2-0.2,0.4-0.5,0.5-0.9c0.2-0.5,0.3-1.1,0.3-1.6C75.4,16,74.2,15.6,73.2,15.8z"/>
	<path class="st1" d="M16.9,14.9c-0.7-1.9-1.9-3.6-3.7-4.7c-1.6-1-3.5-1.1-4.5,0.5c-1.4,2.1,0.1,5.6,1,7.6c1.4,3.2,3.6,6,5.8,8.8
		c0.5,0.7,1.7,0.1,1.4-0.5c0.3,0.1,0.6,0,0.8-0.3c1.8-2.6,3.5-5.2,4.6-8.1c0.6-1.6,1.8-5.3,0.6-6.9C21.1,8.8,18.3,12.3,16.9,14.9z
		 M14,15.8l1,2.9c0.1,0.5,0.2,0.9,0.3,1.4c-0.3-0.8-0.6-1.5-1-2.3c0.2-0.1,0.3-0.2,0.2-0.4c-0.2-0.4-0.4-0.8-0.6-1.2
		c0-0.1,0-0.1,0-0.2S13.9,15.8,14,15.8C13.9,15.8,13.9,15.8,14,15.8z M10.9,17.5c-0.2-0.6-0.5-1.2-0.7-1.8S9.9,14.5,9.8,14
		c-0.3-0.6-0.2-1,0.3-1.3c0.2,0.9,0.6,1.8,1,2.7c0.4,1.1,0.8,2.1,1.3,3.2c1,2.2,2.5,4.3,3.4,6.6C13.9,22.7,12.1,20.2,10.9,17.5z
		 M15.9,17.1c0,0.2,0,0.4,0,0.6c-0.1-0.2-0.1-0.4-0.2-0.5c0,0,0,0,0-0.1s0-0.1-0.1-0.2c-0.2-0.7-0.5-1.4-0.7-2.1
		c0-0.3-0.1-0.6-0.1-0.9c0.5,0.9,0.9,1.9,1.1,2.9c0,0.1,0,0.1,0.1,0.2C15.9,17,15.9,17,15.9,17.1z M17.7,23.7c0.2-0.5,0.5-1,0.7-1.4
		c0.1,0,0.2,0,0.2,0C18.3,22.7,18,23.2,17.7,23.7z M20.4,13.7c0-0.1,0-0.1,0-0.2l0,0c0.1-0.1,0.2-0.1,0.3-0.2c0,0.2-0.1,0.4-0.2,0.5
		C20.5,13.8,20.5,13.8,20.4,13.7C20.4,13.8,20.4,13.8,20.4,13.7z M21.3,16.4c-0.4,1.7-1.2,3.2-2,4.8c1.1-2.3,1.9-4.7,2.5-7.1
		C21.7,14.9,21.5,15.7,21.3,16.4z"/>
	<path class="st2" d="M34.9,15.8c-0.4,0-0.7,0.2-1,0.3c-1,0.6-1.5,2.1-0.8,3.1c0.4,0.6,1.1,0.9,1.8,0.9c0.5,0,1-0.2,1.4-0.6
		c0.2-0.2,0.4-0.5,0.5-0.9c0.2-0.5,0.3-1.1,0.3-1.6C37.1,16,35.9,15.6,34.9,15.8z"/>
	<g>
		<path class="st2" d="M264.9,55.2c-0.4,0-0.7,0.2-1,0.3c-1,0.6-1.5,2.1-0.8,3.1c0.4,0.6,1.1,0.9,1.8,0.9c0.5,0,1-0.2,1.4-0.6
			c0.2-0.2,0.4-0.5,0.5-0.9c0.2-0.5,0.3-1.1,0.3-1.6C267,55.4,265.9,55,264.9,55.2z"/>
		<path class="st1" d="M16.9,54.3c-0.7-1.9-1.9-3.6-3.7-4.7c-1.6-1-3.5-1.1-4.5,0.5c-1.4,2.1,0.1,5.6,1,7.6c1.4,3.2,3.6,6,5.8,8.8
			c0.5,0.7,1.7,0.1,1.4-0.5c0.3,0.1,0.6,0,0.8-0.3c1.8-2.6,3.5-5.2,4.6-8.1c0.6-1.6,1.8-5.3,0.6-6.9C21.1,48.2,18.3,51.7,16.9,54.3z
			 M14,55.2l1,2.9c0.1,0.5,0.2,0.9,0.3,1.4c-0.3-0.8-0.6-1.5-1-2.3c0.2-0.1,0.3-0.2,0.2-0.4c-0.2-0.4-0.4-0.8-0.6-1.2
			c0-0.1,0-0.1,0-0.2S13.9,55.2,14,55.2C13.9,55.2,13.9,55.2,14,55.2z M10.9,56.9c-0.2-0.6-0.5-1.2-0.7-1.8s-0.3-1.2-0.4-1.7
			c-0.3-0.6-0.2-1,0.3-1.3c0.2,0.9,0.6,1.8,1,2.7c0.4,1.1,0.8,2.1,1.3,3.2c1,2.2,2.5,4.3,3.4,6.6C13.9,62.1,12.1,59.6,10.9,56.9z
			 M15.9,56.5c0,0.2,0,0.4,0,0.6c-0.1-0.2-0.1-0.4-0.2-0.5c0,0,0,0,0-0.1s0-0.1-0.1-0.2c-0.2-0.7-0.5-1.4-0.7-2.1
			c0-0.3-0.1-0.6-0.1-0.9c0.5,0.9,0.9,1.9,1.1,2.9c0,0.1,0,0.1,0.1,0.2C15.9,56.4,15.9,56.4,15.9,56.5z M17.7,63.1
			c0.2-0.5,0.5-1,0.7-1.4c0.1,0,0.2,0,0.2,0C18.3,62.1,18,62.6,17.7,63.1z M20.4,53.1c0-0.1,0-0.1,0-0.2l0,0
			c0.1-0.1,0.2-0.1,0.3-0.2C20.7,52.9,20.6,53.1,20.4,53.1C20.5,53.2,20.5,53.2,20.4,53.1C20.4,53.2,20.4,53.2,20.4,53.1z
			 M21.3,55.8c-0.4,1.7-1.2,3.2-2,4.8c1.1-2.3,1.9-4.7,2.5-7.1C21.7,54.3,21.5,55.1,21.3,55.8z"/>
	</g>
	<g>
		<path class="st2" d="M270.9,37.5c-0.3-2.5-1.9-4.6-4.1-5.8c-0.6-0.5-1.3-0.8-2-1.1c-2-0.7-4.1-0.3-5.2,1.9c-0.7,1.4-1,3.1-0.9,4.9
			c0.1,2.8,1.3,5.6,3.8,6.7c0.8,0.3,1.5,0.5,2.3,0.5c2.8,0,5.4-2.1,6-5.1C271,38.9,271,38.2,270.9,37.5z"/>
		<path class="st2" d="M15.9,36c-0.2-0.3-0.6-0.6-1-0.5c-0.8,0.1-1.2,0.9-1.3,1.6c0,0.1,0,0.3,0,0.4c0.1,0.6,0.4,1.2,1.1,1.5
			c0.7,0.2,1.4-0.1,1.7-0.7c0.1-0.2,0.1-0.3,0.1-0.5l0,0c0-0.1,0-0.1,0-0.2C16.6,37,16.4,36.3,15.9,36z"/>
	</g>
	<g>
		<path class="st2" d="M264.9,95.7c-0.4,0-0.7,0.2-1,0.3c-1,0.6-1.5,2.1-0.8,3.1c0.4,0.6,1.1,0.9,1.8,0.9c0.5,0,1-0.2,1.4-0.6
			c0.2-0.2,0.4-0.5,0.5-0.9c0.2-0.5,0.3-1.1,0.3-1.6C267,95.9,265.9,95.5,264.9,95.7z"/>
		<path class="st1" d="M16.9,94.8c-0.7-1.9-1.9-3.6-3.7-4.7c-1.6-1-3.5-1.1-4.5,0.5c-1.4,2.1,0.1,5.6,1,7.6c1.4,3.2,3.6,6,5.8,8.8
			c0.5,0.7,1.7,0.1,1.4-0.5c0.3,0.1,0.6,0,0.8-0.3c1.8-2.6,3.5-5.2,4.6-8.1c0.6-1.6,1.8-5.3,0.6-6.9C21.1,88.7,18.3,92.2,16.9,94.8z
			 M14,95.7l1,2.9c0.1,0.5,0.2,0.9,0.3,1.4c-0.3-0.8-0.6-1.5-1-2.3c0.2-0.1,0.3-0.2,0.2-0.4c-0.2-0.4-0.4-0.8-0.6-1.2
			c0-0.1,0-0.1,0-0.2S13.9,95.7,14,95.7C13.9,95.7,13.9,95.7,14,95.7z M10.9,97.4c-0.2-0.6-0.5-1.2-0.7-1.8C10,95,9.9,94.4,9.8,93.9
			c-0.3-0.6-0.2-1,0.3-1.3c0.2,0.9,0.6,1.8,1,2.7c0.4,1.1,0.8,2.1,1.3,3.2c1,2.2,2.5,4.3,3.4,6.6C13.9,102.6,12.1,100.1,10.9,97.4z
			 M15.9,97c0,0.2,0,0.4,0,0.6c-0.1-0.2-0.1-0.4-0.2-0.5c0,0,0,0,0-0.1s0-0.1-0.1-0.2c-0.2-0.7-0.5-1.4-0.7-2.1
			c0-0.3-0.1-0.6-0.1-0.9c0.5,0.9,0.9,1.9,1.1,2.9c0,0.1,0,0.1,0.1,0.2C15.9,96.9,15.9,96.9,15.9,97z M17.7,103.6
			c0.2-0.5,0.5-1,0.7-1.4c0.1,0,0.2,0,0.2,0C18.3,102.6,18,103.1,17.7,103.6z M20.4,93.6c0-0.1,0-0.1,0-0.2l0,0
			c0.1-0.1,0.2-0.1,0.3-0.2c0,0.2-0.1,0.4-0.2,0.5C20.5,93.7,20.5,93.7,20.4,93.6C20.4,93.7,20.4,93.7,20.4,93.6z M21.3,96.3
			c-0.4,1.7-1.2,3.2-2,4.8c1.1-2.3,1.9-4.7,2.5-7.1C21.7,94.8,21.5,95.6,21.3,96.3z"/>
	</g>
	<g>
		<path class="st2" d="M270.9,78c-0.3-2.5-1.9-4.6-4.1-5.8c-0.6-0.5-1.3-0.8-2-1.1c-2-0.7-4.1-0.3-5.2,1.9c-0.7,1.4-1,3.1-0.9,4.9
			c0.1,2.8,1.3,5.6,3.8,6.7c0.8,0.3,1.5,0.5,2.3,0.5c2.8,0,5.4-2.1,6-5.1C271,79.4,271,78.7,270.9,78z"/>
		<path class="st2" d="M15.9,76.5c-0.2-0.3-0.6-0.6-1-0.5c-0.8,0.1-1.2,0.9-1.3,1.6c0,0.1,0,0.3,0,0.4c0.1,0.6,0.4,1.2,1.1,1.5
			c0.7,0.2,1.4-0.1,1.7-0.7c0.1-0.2,0.1-0.3,0.1-0.5l0,0c0-0.1,0-0.1,0-0.2C16.6,77.5,16.4,76.8,15.9,76.5z"/>
	</g>
	<g>
		<path class="st2" d="M264.9,136.2c-0.4,0-0.7,0.2-1,0.3c-1,0.6-1.5,2.1-0.8,3.1c0.4,0.6,1.1,0.9,1.8,0.9c0.5,0,1-0.2,1.4-0.6
			c0.2-0.2,0.4-0.5,0.5-0.9c0.2-0.5,0.3-1.1,0.3-1.6C267,136.4,265.9,136,264.9,136.2z"/>
		<path class="st1" d="M16.9,135.3c-0.7-1.9-1.9-3.6-3.7-4.7c-1.6-1-3.5-1.1-4.5,0.5c-1.4,2.1,0.1,5.6,1,7.6c1.4,3.2,3.6,6,5.8,8.8
			c0.5,0.7,1.7,0.1,1.4-0.5c0.3,0.1,0.6,0,0.8-0.3c1.8-2.6,3.5-5.2,4.6-8.1c0.6-1.6,1.8-5.3,0.6-6.9
			C21.1,129.2,18.3,132.7,16.9,135.3z M14,136.2l1,2.9c0.1,0.5,0.2,0.9,0.3,1.4c-0.3-0.8-0.6-1.5-1-2.3c0.2-0.1,0.3-0.2,0.2-0.4
			c-0.2-0.4-0.4-0.8-0.6-1.2c0-0.1,0-0.1,0-0.2S13.9,136.2,14,136.2C13.9,136.2,13.9,136.2,14,136.2z M10.9,137.9
			c-0.2-0.6-0.5-1.2-0.7-1.8s-0.3-1.2-0.4-1.7c-0.3-0.6-0.2-1,0.3-1.3c0.2,0.9,0.6,1.8,1,2.7c0.4,1.1,0.8,2.1,1.3,3.2
			c1,2.2,2.5,4.3,3.4,6.6C13.9,143.1,12.1,140.6,10.9,137.9z M15.9,137.5c0,0.2,0,0.4,0,0.6c-0.1-0.2-0.1-0.4-0.2-0.5c0,0,0,0,0-0.1
			s0-0.1-0.1-0.2c-0.2-0.7-0.5-1.4-0.7-2.1c0-0.3-0.1-0.6-0.1-0.9c0.5,0.9,0.9,1.9,1.1,2.9c0,0.1,0,0.1,0.1,0.2
			C15.9,137.4,15.9,137.4,15.9,137.5z M17.7,144.1c0.2-0.5,0.5-1,0.7-1.4c0.1,0,0.2,0,0.2,0C18.3,143.1,18,143.6,17.7,144.1z
			 M20.4,134.1c0-0.1,0-0.1,0-0.2l0,0c0.1-0.1,0.2-0.1,0.3-0.2c0,0.2-0.1,0.4-0.2,0.5C20.5,134.2,20.5,134.2,20.4,134.1
			C20.4,134.2,20.4,134.2,20.4,134.1z M21.3,136.8c-0.4,1.7-1.2,3.2-2,4.8c1.1-2.3,1.9-4.7,2.5-7.1
			C21.7,135.3,21.5,136.1,21.3,136.8z"/>
	</g>
	<g>
		<path class="st2" d="M270.9,118.5c-0.3-2.5-1.9-4.6-4.1-5.8c-0.6-0.5-1.3-0.8-2-1.1c-2-0.7-4.1-0.3-5.2,1.9
			c-0.7,1.4-1,3.1-0.9,4.9c0.1,2.8,1.3,5.6,3.8,6.7c0.8,0.3,1.5,0.5,2.3,0.5c2.8,0,5.4-2.1,6-5.1C271,119.9,271,119.2,270.9,118.5z"
			/>
		<path class="st2" d="M15.9,117c-0.2-0.3-0.6-0.6-1-0.5c-0.8,0.1-1.2,0.9-1.3,1.6c0,0.1,0,0.3,0,0.4c0.1,0.6,0.4,1.2,1.1,1.5
			c0.7,0.2,1.4-0.1,1.7-0.7c0.1-0.2,0.1-0.3,0.1-0.5l0,0c0-0.1,0-0.1,0-0.2C16.6,118,16.4,117.3,15.9,117z"/>
	</g>
	<g>
		<path class="st2" d="M264.9,176.6c-0.4,0-0.7,0.2-1,0.3c-1,0.6-1.5,2.1-0.8,3.1c0.4,0.6,1.1,0.9,1.8,0.9c0.5,0,1-0.2,1.4-0.6
			c0.2-0.2,0.4-0.5,0.5-0.9c0.2-0.5,0.3-1.1,0.3-1.6C267,176.9,265.9,176.5,264.9,176.6z"/>
		<path class="st1" d="M16.9,175.8c-0.7-1.9-1.9-3.6-3.7-4.7c-1.6-1-3.5-1.1-4.5,0.5c-1.4,2.1,0.1,5.6,1,7.6c1.4,3.2,3.6,6,5.8,8.8
			c0.5,0.7,1.7,0.1,1.4-0.5c0.3,0.1,0.6,0,0.8-0.3c1.8-2.6,3.5-5.2,4.6-8.1c0.6-1.6,1.8-5.3,0.6-6.9
			C21.1,169.7,18.3,173.2,16.9,175.8z M14,176.7l1,2.9c0.1,0.5,0.2,0.9,0.3,1.4c-0.3-0.8-0.6-1.5-1-2.3c0.2-0.1,0.3-0.2,0.2-0.4
			c-0.2-0.4-0.4-0.8-0.6-1.2c0-0.1,0-0.1,0-0.2S13.9,176.7,14,176.7C13.9,176.7,13.9,176.7,14,176.7z M10.9,178.4
			c-0.2-0.6-0.5-1.2-0.7-1.8s-0.3-1.2-0.4-1.7c-0.3-0.6-0.2-1,0.3-1.3c0.2,0.9,0.6,1.8,1,2.7c0.4,1.1,0.8,2.1,1.3,3.2
			c1,2.2,2.5,4.3,3.4,6.6C13.9,183.6,12.1,181.1,10.9,178.4z M15.9,178c0,0.2,0,0.4,0,0.6c-0.1-0.2-0.1-0.4-0.2-0.5c0,0,0,0,0-0.1
			s0-0.1-0.1-0.2c-0.2-0.7-0.5-1.4-0.7-2.1c0-0.3-0.1-0.6-0.1-0.9c0.5,0.9,0.9,1.9,1.1,2.9c0,0.1,0,0.1,0.1,0.2
			C15.9,177.8,15.9,177.9,15.9,178z M17.7,184.6c0.2-0.5,0.5-1,0.7-1.4c0.1,0,0.2,0,0.2,0C18.3,183.6,18,184.1,17.7,184.6z
			 M20.4,174.6c0-0.1,0-0.1,0-0.2l0,0c0.1-0.1,0.2-0.1,0.3-0.2c0,0.2-0.1,0.4-0.2,0.5C20.5,174.7,20.5,174.7,20.4,174.6
			C20.4,174.7,20.4,174.6,20.4,174.6z M21.3,177.3c-0.4,1.7-1.2,3.2-2,4.8c1.1-2.3,1.9-4.7,2.5-7.1
			C21.7,175.7,21.5,176.6,21.3,177.3z"/>
	</g>
	<g>
		<path class="st2" d="M270.9,159c-0.3-2.5-1.9-4.6-4.1-5.8c-0.6-0.5-1.3-0.8-2-1.1c-2-0.7-4.1-0.3-5.2,1.9c-0.7,1.4-1,3.1-0.9,4.9
			c0.1,2.8,1.3,5.6,3.8,6.7c0.8,0.3,1.5,0.5,2.3,0.5c2.8,0,5.4-2.1,6-5.1C271,160.4,271,159.7,270.9,159z"/>
		<path class="st2" d="M15.9,157.5c-0.2-0.3-0.6-0.6-1-0.5c-0.8,0.1-1.2,0.9-1.3,1.6c0,0.1,0,0.3,0,0.4c0.1,0.6,0.4,1.2,1.1,1.5
			c0.7,0.2,1.4-0.1,1.7-0.7c0.1-0.2,0.1-0.3,0.1-0.5l0,0c0-0.1,0-0.1,0-0.2C16.6,158.5,16.4,157.8,15.9,157.5z"/>
	</g>
	<g>
		<path class="st2" d="M270.9,203.5c-0.3-2.5-1.9-4.6-4.1-5.8c-0.6-0.5-1.3-0.8-2-1.1c-2-0.7-4.1-0.3-5.2,1.9
			c-0.7,1.4-1,3.1-0.9,4.9c0.1,2.8,1.3,5.6,3.8,6.7c0.8,0.3,1.5,0.5,2.3,0.5c2.8,0,5.4-2.1,6-5.1C271,204.8,271,204.1,270.9,203.5z"
			/>
		<path class="st2" d="M245.9,201.9c-0.2-0.3-0.6-0.6-1-0.5c-0.8,0.1-1.2,0.9-1.3,1.6c0,0.1,0,0.3,0,0.4c0.1,0.6,0.4,1.2,1.1,1.5
			c0.7,0.2,1.4-0.1,1.7-0.7c0.1-0.2,0.1-0.3,0.1-0.5l0,0c0-0.1,0-0.1,0-0.2C246.5,202.9,246.3,202.2,245.9,201.9z"/>
		<path class="st2" d="M232.6,203.5c-0.3-2.5-1.9-4.6-4.1-5.8c-0.6-0.5-1.3-0.8-2-1.1c-2-0.7-4.1-0.3-5.2,1.9
			c-0.7,1.4-1,3.1-0.9,4.9c0.1,2.8,1.3,5.6,3.8,6.7c0.8,0.3,1.5,0.5,2.3,0.5c2.8,0,5.4-2.1,6-5.1
			C232.7,204.8,232.7,204.1,232.6,203.5z"/>
		<path class="st2" d="M207.5,201.9c-0.2-0.3-0.6-0.6-1-0.5c-0.8,0.1-1.2,0.9-1.3,1.6c0,0.1,0,0.3,0,0.4c0.1,0.6,0.4,1.2,1.1,1.5
			c0.7,0.2,1.4-0.1,1.7-0.7c0.1-0.2,0.1-0.3,0.1-0.5l0,0c0-0.1,0-0.1,0-0.2C208.2,202.9,208,202.2,207.5,201.9z"/>
		<path class="st2" d="M194.3,203.5c-0.3-2.5-1.9-4.6-4.1-5.8c-0.6-0.5-1.3-0.8-2-1.1c-2-0.7-4.1-0.3-5.2,1.9
			c-0.7,1.4-1,3.1-0.9,4.9c0.1,2.8,1.3,5.6,3.8,6.7c0.8,0.3,1.5,0.5,2.3,0.5c2.8,0,5.4-2.1,6-5.1
			C194.3,204.8,194.3,204.1,194.3,203.5z"/>
		<path class="st2" d="M169.2,201.9c-0.2-0.3-0.6-0.6-1-0.5c-0.8,0.1-1.2,0.9-1.3,1.6c0,0.1,0,0.3,0,0.4c0.1,0.6,0.4,1.2,1.1,1.5
			c0.7,0.2,1.4-0.1,1.7-0.7c0.1-0.2,0.1-0.3,0.1-0.5l0,0c0-0.1,0-0.1,0-0.2C169.9,202.9,169.7,202.2,169.2,201.9z"/>
		<path class="st2" d="M155.9,203.5c-0.3-2.5-1.9-4.6-4.1-5.8c-0.6-0.5-1.3-0.8-2-1.1c-2-0.7-4.1-0.3-5.2,1.9
			c-0.7,1.4-1,3.1-0.9,4.9c0.1,2.8,1.3,5.6,3.8,6.7c0.8,0.3,1.5,0.5,2.3,0.5c2.8,0,5.4-2.1,6-5.1C156,204.8,156,204.1,155.9,203.5z"
			/>
		<path class="st2" d="M130.9,201.9c-0.2-0.3-0.6-0.6-1-0.5c-0.8,0.1-1.2,0.9-1.3,1.6c0,0.1,0,0.3,0,0.4c0.1,0.6,0.4,1.2,1.1,1.5
			c0.7,0.2,1.4-0.1,1.7-0.7c0.1-0.2,0.1-0.3,0.1-0.5l0,0c0-0.1,0-0.1,0-0.2C131.6,202.9,131.4,202.2,130.9,201.9z"/>
		<path class="st2" d="M117.6,203.5c-0.3-2.5-1.9-4.6-4.1-5.8c-0.6-0.5-1.3-0.8-2-1.1c-2-0.7-4.1-0.3-5.2,1.9
			c-0.7,1.4-1,3.1-0.9,4.9c0.1,2.8,1.3,5.6,3.8,6.7c0.8,0.3,1.5,0.5,2.3,0.5c2.8,0,5.4-2.1,6-5.1
			C117.7,204.8,117.7,204.1,117.6,203.5z"/>
		<path class="st2" d="M92.5,201.9c-0.2-0.3-0.6-0.6-1-0.5c-0.8,0.1-1.2,0.9-1.3,1.6c0,0.1,0,0.3,0,0.4c0.1,0.6,0.4,1.2,1.1,1.5
			c0.7,0.2,1.4-0.1,1.7-0.7c0.1-0.2,0.1-0.3,0.1-0.5l0,0c0-0.1,0-0.1,0-0.2C93.2,202.9,93,202.2,92.5,201.9z"/>
		<path class="st2" d="M79.3,203.5c-0.3-2.5-1.9-4.6-4.1-5.8c-0.6-0.5-1.3-0.8-2-1.1c-2-0.7-4.1-0.3-5.2,1.9c-0.7,1.4-1,3.1-0.9,4.9
			c0.1,2.8,1.3,5.6,3.8,6.7c0.8,0.3,1.5,0.5,2.3,0.5c2.8,0,5.4-2.1,6-5.1C79.3,204.8,79.4,204.1,79.3,203.5z"/>
		<path class="st2" d="M54.2,201.9c-0.2-0.3-0.6-0.6-1-0.5c-0.8,0.1-1.2,0.9-1.3,1.6c0,0.1,0,0.3,0,0.4c0.1,0.6,0.4,1.2,1.1,1.5
			c0.7,0.2,1.4-0.1,1.7-0.7c0.1-0.2,0.1-0.3,0.1-0.5l0,0c0-0.1,0-0.1,0-0.2C54.9,202.9,54.7,202.2,54.2,201.9z"/>
		<path class="st2" d="M41,203.5c-0.3-2.5-1.9-4.6-4.1-5.8c-0.6-0.5-1.3-0.8-2-1.1c-2-0.7-4.1-0.3-5.2,1.9c-0.7,1.4-1,3.1-0.9,4.9
			c0.1,2.8,1.3,5.6,3.8,6.7c0.8,0.3,1.5,0.5,2.3,0.5c2.8,0,5.4-2.1,6-5.1C41,204.8,41,204.1,41,203.5z"/>
		<path class="st2" d="M15.9,201.9c-0.2-0.3-0.6-0.6-1-0.5c-0.8,0.1-1.2,0.9-1.3,1.6c0,0.1,0,0.3,0,0.4c0.1,0.6,0.4,1.2,1.1,1.5
			c0.7,0.2,1.4-0.1,1.7-0.7c0.1-0.2,0.1-0.3,0.1-0.5l0,0c0-0.1,0-0.1,0-0.2C16.6,202.9,16.4,202.2,15.9,201.9z"/>
	</g>
	<rect x="50" y="52.5" class="st3" width="181" height="24"/>
	<g class="st4">
		<path class="st5" d="M91.2,52c1.9,0,3.2,0.9,3.9,2l-1.7,0.9c-0.4-0.7-1.2-1.2-2.2-1.2c-1.7,0-2.9,1.3-2.9,3.1
			c0,1.8,1.2,3.1,2.9,3.1c0.9,0,1.6-0.4,2-0.7v-1.1h-2.5v-1.7h4.5v3.6c-1,1.1-2.3,1.8-4,1.8c-2.7,0-5-1.9-5-4.8
			C86.2,53.9,88.5,52,91.2,52z"/>
		<path class="st5" d="M103.2,52c2.8,0,4.9,2,4.9,4.8c0,2.8-2.1,4.8-4.9,4.8c-2.8,0-4.9-2-4.9-4.8C98.3,54,100.4,52,103.2,52z
			 M103.2,53.8c-1.7,0-2.8,1.3-2.8,3.1c0,1.7,1.1,3.1,2.8,3.1c1.7,0,2.8-1.3,2.8-3.1C106,55.1,104.9,53.8,103.2,53.8z"/>
		<path class="st5" d="M115.9,52c2.8,0,4.9,2,4.9,4.8c0,2.8-2.1,4.8-4.9,4.8c-2.8,0-4.9-2-4.9-4.8C111,54,113.1,52,115.9,52z
			 M115.9,53.8c-1.7,0-2.8,1.3-2.8,3.1c0,1.7,1.1,3.1,2.8,3.1c1.7,0,2.8-1.3,2.8-3.1C118.7,55.1,117.6,53.8,115.9,53.8z"/>
		<path class="st5" d="M124.1,52.2h3.7c2.9,0,5,1.9,5,4.7c0,2.8-2,4.7-5,4.7h-3.7V52.2z M127.8,59.8c1.8,0,2.9-1.3,2.9-2.9
			c0-1.7-1-2.9-2.9-2.9h-1.7v5.8H127.8z"/>
		<path class="st5" d="M143.7,55.2v6.3h-2v-9.3h2l4.3,6.1v-6.1h2v9.3h-1.9L143.7,55.2z"/>
		<path class="st5" d="M153.9,52.2h6.6v1.7h-4.6v2h4.5v1.7h-4.5v2.2h4.6v1.7h-6.6V52.2z"/>
		<path class="st5" d="M169.6,55.1l-1.6,6.4h-2.1l-2.7-9.3h2.2l1.6,6.8l1.8-6.8h1.6l1.8,6.8l1.6-6.8h2.2l-2.7,9.3h-2.1L169.6,55.1z"
			/>
		<path class="st5" d="M179.4,58.7c0.7,0.7,1.7,1.3,3,1.3c1.1,0,1.6-0.5,1.6-1.1c0-0.7-0.8-0.9-1.9-1.2c-1.5-0.3-3.5-0.8-3.5-2.9
			c0-1.6,1.3-2.8,3.5-2.8c1.5,0,2.7,0.4,3.6,1.3l-1.1,1.5c-0.8-0.7-1.8-1-2.7-1c-0.9,0-1.4,0.4-1.4,1c0,0.6,0.8,0.8,1.9,1.1
			c1.5,0.3,3.5,0.8,3.5,2.9c0,1.7-1.2,3-3.7,3c-1.8,0-3.1-0.6-4-1.5L179.4,58.7z"/>
		<path class="st5" d="M190.2,59.4c0.6,0,1.1,0.5,1.1,1.1c0,0.6-0.5,1.1-1.1,1.1s-1.1-0.5-1.1-1.1C189.1,59.9,189.6,59.4,190.2,59.4
			z M189.1,52.2h2.2l-0.3,6.3h-1.6L189.1,52.2z"/>
	</g>
	<rect x="50" y="89.1" class="st3" width="181" height="89.7"/>
	<g>
		<g>
			<path class="st5" d="M125,77.6c-0.3,0-0.4,0.1-0.6,0.2c-0.6,0.4-0.9,1.3-0.5,2c0.3,0.4,0.7,0.6,1.1,0.6c0.3,0,0.6-0.1,0.9-0.4
				c0.1-0.1,0.3-0.3,0.3-0.6c0.1-0.3,0.2-0.7,0.2-1C126.4,77.8,125.6,77.5,125,77.6z"/>
			<path class="st5" d="M135,77.6c-0.3,0-0.4,0.1-0.6,0.2c-0.6,0.4-0.9,1.3-0.5,2c0.3,0.4,0.7,0.6,1.1,0.6c0.3,0,0.6-0.1,0.9-0.4
				c0.1-0.1,0.3-0.3,0.3-0.6c0.1-0.3,0.2-0.7,0.2-1C136.4,77.8,135.6,77.5,135,77.6z"/>
			<path class="st5" d="M145,77.6c-0.3,0-0.4,0.1-0.6,0.2c-0.6,0.4-0.9,1.3-0.5,2c0.3,0.4,0.7,0.6,1.1,0.6c0.3,0,0.6-0.1,0.9-0.4
				c0.1-0.1,0.3-0.3,0.3-0.6c0.1-0.3,0.2-0.7,0.2-1C146.4,77.8,145.6,77.5,145,77.6z"/>
			<path class="st5" d="M155,77.6c-0.3,0-0.4,0.1-0.6,0.2c-0.6,0.4-0.9,1.3-0.5,2c0.3,0.4,0.7,0.6,1.1,0.6c0.3,0,0.6-0.1,0.9-0.4
				c0.1-0.1,0.3-0.3,0.3-0.6c0.1-0.3,0.2-0.7,0.2-1C156.4,77.8,155.6,77.5,155,77.6z"/>
		</g>
	</g>
	<rect x="56.5" y="96.6" class="st3" width="167" height="79.2"/>
	<g class="st4">
		<path class="st6" d="M71.8,103.2c0.6,0.6,1.5,1.2,2.7,1.2c1.5,0,2-0.8,2-1.5c0-1-1.1-1.3-2.2-1.6c-1.4-0.4-2.9-0.8-2.9-2.5
			c0-1.4,1.3-2.4,3-2.4c1.3,0,2.4,0.4,3.1,1.2l-0.6,0.8c-0.6-0.7-1.6-1-2.5-1c-1,0-1.8,0.6-1.8,1.4c0,0.9,1,1.1,2.1,1.4
			c1.4,0.4,3,0.8,3,2.6c0,1.3-0.9,2.5-3.2,2.5c-1.5,0-2.6-0.6-3.3-1.4L71.8,103.2z"/>
		<path class="st6" d="M78.9,102.1c0-1.8,1.2-3.3,3.1-3.3s3.1,1.5,3.1,3.3c0,1.8-1.2,3.3-3.1,3.3S78.9,103.9,78.9,102.1z
			 M84.1,102.1c0-1.3-0.7-2.4-2.1-2.4c-1.3,0-2.1,1.1-2.1,2.4c0,1.3,0.8,2.4,2.1,2.4C83.4,104.5,84.1,103.4,84.1,102.1z"/>
		<path class="st6" d="M94.3,101c0-0.8-0.4-1.3-1.2-1.3c-0.7,0-1.3,0.5-1.7,1v4.6h-1V101c0-0.8-0.3-1.3-1.2-1.3
			c-0.6,0-1.3,0.5-1.7,1v4.6h-1V99h1v0.9c0.3-0.4,1.1-1.1,2-1.1c1,0,1.5,0.5,1.7,1.2c0.4-0.6,1.2-1.2,2.1-1.2c1.1,0,1.8,0.6,1.8,1.9
			v4.5h-1V101z"/>
		<path class="st6" d="M99.9,98.8c1.9,0,3,1.5,3,3.4v0.2h-5.1c0.1,1.2,0.9,2.2,2.3,2.2c0.7,0,1.4-0.3,1.9-0.8l0.5,0.6
			c-0.6,0.6-1.5,1-2.5,1c-1.9,0-3.2-1.3-3.2-3.3C96.9,100.3,98.2,98.8,99.9,98.8z M97.9,101.7h4.1c0-0.9-0.6-2.1-2.1-2.1
			C98.6,99.6,97.9,100.7,97.9,101.7z"/>
		<path class="st6" d="M104.5,96.6h1v3.3c0.5-0.7,1.3-1.1,2.1-1.1c1.6,0,2.8,1.3,2.8,3.3c0,2-1.2,3.3-2.8,3.3
			c-0.9,0-1.7-0.5-2.1-1.1v0.9h-1V96.6z M107.4,104.5c1.3,0,2-1,2-2.4c0-1.4-0.8-2.4-2-2.4c-0.8,0-1.5,0.5-1.9,1v2.8
			C105.8,104.1,106.6,104.5,107.4,104.5z"/>
		<path class="st6" d="M111.6,102.1c0-1.8,1.2-3.3,3.1-3.3s3.1,1.5,3.1,3.3c0,1.8-1.2,3.3-3.1,3.3S111.6,103.9,111.6,102.1z
			 M116.8,102.1c0-1.3-0.7-2.4-2.1-2.4c-1.3,0-2.1,1.1-2.1,2.4c0,1.3,0.8,2.4,2.1,2.4C116.1,104.5,116.8,103.4,116.8,102.1z"/>
		<path class="st6" d="M124,104.3c-0.5,0.6-1.2,1.1-2.1,1.1c-1.6,0-2.8-1.2-2.8-3.3c0-2,1.1-3.3,2.8-3.3c0.8,0,1.6,0.4,2.1,1.1v-3.3
			h1v8.7h-1V104.3z M124,100.7c-0.4-0.5-1.1-1-1.9-1c-1.3,0-2,1-2,2.4c0,1.4,0.8,2.4,2,2.4c0.8,0,1.5-0.4,1.9-1V100.7z"/>
		<path class="st6" d="M127.3,106.9c0.4,0,0.7-0.1,0.9-0.7l0.4-0.9L126,99h1.1l2.1,5.1l2.1-5.1h1.1l-3.1,7.6c-0.4,0.9-1,1.3-1.8,1.3
			c-0.2,0-0.5,0-0.7-0.1l0.2-0.9C126.9,106.9,127.1,106.9,127.3,106.9z"/>
		<path class="st6" d="M140.6,104.5c-0.5,0.6-1.2,0.9-2.1,0.9c-1.1,0-2.2-0.7-2.2-2.1c0-1.4,1.1-2.1,2.2-2.1c0.9,0,1.6,0.3,2.1,0.9
			V101c0-0.8-0.7-1.3-1.6-1.3c-0.8,0-1.4,0.3-1.9,0.9l-0.5-0.7c0.7-0.7,1.5-1,2.5-1c1.3,0,2.4,0.6,2.4,2.1v4.3h-1V104.5z
			 M140.6,102.7c-0.4-0.5-1-0.8-1.7-0.8c-0.9,0-1.5,0.6-1.5,1.4c0,0.8,0.6,1.4,1.5,1.4c0.7,0,1.4-0.3,1.7-0.8V102.7z"/>
		<path class="st6" d="M151.1,101c0-0.8-0.4-1.3-1.2-1.3c-0.7,0-1.3,0.5-1.7,1v4.6h-1V101c0-0.8-0.3-1.3-1.2-1.3
			c-0.6,0-1.3,0.5-1.7,1v4.6h-1V99h1v0.9c0.3-0.4,1.1-1.1,2-1.1c1,0,1.5,0.5,1.7,1.2c0.4-0.6,1.2-1.2,2.1-1.2c1.1,0,1.8,0.6,1.8,1.9
			v4.5h-1V101z"/>
		<path class="st6" d="M153.6,102.1c0-1.8,1.2-3.3,3.1-3.3s3.1,1.5,3.1,3.3c0,1.8-1.2,3.3-3.1,3.3S153.6,103.9,153.6,102.1z
			 M158.8,102.1c0-1.3-0.7-2.4-2.1-2.4c-1.3,0-2.1,1.1-2.1,2.4c0,1.3,0.8,2.4,2.1,2.4C158.1,104.5,158.8,103.4,158.8,102.1z"/>
		<path class="st6" d="M165.7,101.1c0-1.1-0.6-1.5-1.4-1.5c-0.8,0-1.5,0.5-1.9,1v4.6h-1V99h1v0.9c0.4-0.5,1.3-1.1,2.2-1.1
			c1.3,0,2,0.7,2,2v4.4h-1V101.1z"/>
		<path class="st6" d="M169.1,106.1c0.5,0.6,1.1,0.9,2,0.9c1,0,2-0.5,2-1.9v-0.9c-0.5,0.6-1.2,1.1-2.1,1.1c-1.6,0-2.8-1.2-2.8-3.2
			c0-2,1.1-3.3,2.8-3.3c0.8,0,1.6,0.4,2.1,1.1V99h1v6.1c0,2.1-1.5,2.7-3,2.7c-1.1,0-1.8-0.2-2.5-0.9L169.1,106.1z M173.1,100.7
			c-0.3-0.5-1.1-1-1.9-1c-1.3,0-2,1-2,2.4c0,1.4,0.8,2.4,2,2.4c0.8,0,1.5-0.5,1.9-1V100.7z"/>
		<path class="st6" d="M179.8,106.9c0.4,0,0.7-0.1,0.9-0.7l0.4-0.9l-2.6-6.3h1.1l2.1,5.1l2.1-5.1h1.1l-3.1,7.6
			c-0.4,0.9-1,1.3-1.8,1.3c-0.2,0-0.5,0-0.7-0.1l0.2-0.9C179.4,106.9,179.6,106.9,179.8,106.9z"/>
		<path class="st6" d="M185.4,102.1c0-1.8,1.2-3.3,3.1-3.3s3.1,1.5,3.1,3.3c0,1.8-1.2,3.3-3.1,3.3S185.4,103.9,185.4,102.1z
			 M190.6,102.1c0-1.3-0.7-2.4-2.1-2.4c-1.3,0-2.1,1.1-2.1,2.4c0,1.3,0.8,2.4,2.1,2.4C189.9,104.5,190.6,103.4,190.6,102.1z"/>
		<path class="st6" d="M197.5,104.3c-0.5,0.5-1.3,1-2.2,1c-1.3,0-2-0.6-2-2V99h1v4.1c0,1.1,0.6,1.4,1.4,1.4c0.8,0,1.5-0.4,1.9-0.9
			V99h1v6.3h-1V104.3z"/>
		<path class="st6" d="M200.4,99h1v1c0.5-0.7,1.2-1.1,2.1-1.1v1c-0.1,0-0.2,0-0.4,0c-0.6,0-1.4,0.5-1.7,1v4.4h-1V99z"/>
	</g>
	<g class="st4">
		<path class="st6" d="M63.6,116.8h-1V116h1v-0.5c0-1.3,0.7-2,1.8-2c0.4,0,0.7,0.1,0.9,0.2l-0.2,0.7c-0.2-0.1-0.3-0.1-0.6-0.1
			c-0.6,0-1,0.4-1,1.2v0.5h1.3v0.9h-1.3v5.4h-1V116.8z"/>
		<path class="st6" d="M67,116h1v1c0.5-0.7,1.2-1.1,2.1-1.1v1c-0.1,0-0.2,0-0.4,0c-0.6,0-1.4,0.5-1.7,1v4.4h-1V116z"/>
		<path class="st6" d="M71.2,114.2c0-0.4,0.3-0.7,0.6-0.7c0.4,0,0.7,0.3,0.7,0.7s-0.3,0.7-0.7,0.7C71.5,114.9,71.2,114.6,71.2,114.2
			z M71.3,116h1v6.3h-1V116z"/>
		<path class="st6" d="M77,115.8c1.9,0,3,1.5,3,3.4v0.2h-5.1c0.1,1.2,0.9,2.2,2.3,2.2c0.7,0,1.4-0.3,1.9-0.8l0.5,0.6
			c-0.6,0.6-1.5,1-2.5,1c-1.9,0-3.2-1.3-3.2-3.3C73.9,117.3,75.2,115.8,77,115.8z M74.9,118.7H79c0-0.9-0.6-2.1-2.1-2.1
			C75.6,116.6,75,117.7,74.9,118.7z"/>
		<path class="st6" d="M85.8,118.1c0-1.1-0.6-1.5-1.4-1.5c-0.8,0-1.5,0.5-1.9,1v4.6h-1V116h1v0.9c0.4-0.5,1.3-1.1,2.2-1.1
			c1.3,0,2,0.7,2,2v4.4h-1V118.1z"/>
		<path class="st6" d="M93.3,121.3c-0.5,0.6-1.2,1.1-2.1,1.1c-1.6,0-2.8-1.2-2.8-3.3c0-2,1.1-3.3,2.8-3.3c0.8,0,1.6,0.4,2.1,1.1
			v-3.3h1v8.7h-1V121.3z M93.3,117.7c-0.4-0.5-1.1-1-1.9-1c-1.3,0-2,1-2,2.4c0,1.4,0.8,2.4,2,2.4c0.8,0,1.5-0.4,1.9-1V117.7z"/>
		<path class="st6" d="M99.4,114.2c0-0.4,0.3-0.7,0.6-0.7c0.4,0,0.7,0.3,0.7,0.7s-0.3,0.7-0.7,0.7C99.7,114.9,99.4,114.6,99.4,114.2
			z M99.6,116h1v6.3h-1V116z"/>
		<path class="st6" d="M102.5,120.7c0.4,0.5,1.2,0.9,2.1,0.9c1,0,1.5-0.4,1.5-1c0-0.7-0.8-0.9-1.6-1.1c-1.1-0.2-2.3-0.5-2.3-1.8
			c0-1,0.8-1.8,2.3-1.8c1.1,0,1.8,0.4,2.3,0.9l-0.5,0.7c-0.4-0.5-1.1-0.8-1.9-0.8c-0.9,0-1.4,0.4-1.4,0.9c0,0.6,0.7,0.8,1.5,1
			c1.1,0.2,2.4,0.6,2.4,2c0,1.1-0.8,1.9-2.5,1.9c-1,0-1.9-0.3-2.5-1L102.5,120.7z"/>
		<path class="st6" d="M111.7,114.2c0-0.4,0.3-0.7,0.6-0.7c0.4,0,0.7,0.3,0.7,0.7s-0.3,0.7-0.7,0.7
			C112,114.9,111.7,114.6,111.7,114.2z M111.9,116h1v6.3h-1V116z"/>
		<path class="st6" d="M119.1,118.1c0-1.1-0.6-1.5-1.4-1.5c-0.8,0-1.5,0.5-1.9,1v4.6h-1V116h1v0.9c0.4-0.5,1.3-1.1,2.2-1.1
			c1.3,0,2,0.7,2,2v4.4h-1V118.1z"/>
		<path class="st6" d="M122.2,120.9v-4.1h-1V116h1v-1.7h1v1.7h1.3v0.9h-1.3v3.9c0,0.5,0.2,0.8,0.6,0.8c0.3,0,0.5-0.1,0.7-0.3
			l0.3,0.7c-0.2,0.2-0.6,0.4-1.2,0.4C122.6,122.4,122.2,121.9,122.2,120.9z"/>
		<path class="st6" d="M128.5,115.8c1.9,0,3,1.5,3,3.4v0.2h-5.1c0.1,1.2,0.9,2.2,2.3,2.2c0.7,0,1.4-0.3,1.9-0.8l0.5,0.6
			c-0.6,0.6-1.5,1-2.5,1c-1.9,0-3.2-1.3-3.2-3.3C125.4,117.3,126.7,115.8,128.5,115.8z M126.5,118.7h4.1c0-0.9-0.6-2.1-2.1-2.1
			C127.2,116.6,126.5,117.7,126.5,118.7z"/>
		<path class="st6" d="M133.1,116h1v1c0.5-0.7,1.2-1.1,2.1-1.1v1c-0.1,0-0.2,0-0.4,0c-0.6,0-1.4,0.5-1.7,1v4.4h-1V116z"/>
		<path class="st6" d="M140.1,115.8c1.9,0,3,1.5,3,3.4v0.2h-5.1c0.1,1.2,0.9,2.2,2.3,2.2c0.7,0,1.4-0.3,1.9-0.8l0.5,0.6
			c-0.6,0.6-1.5,1-2.5,1c-1.9,0-3.2-1.3-3.2-3.3C137,117.3,138.3,115.8,140.1,115.8z M138.1,118.7h4.1c0-0.9-0.6-2.1-2.1-2.1
			C138.8,116.6,138.1,117.7,138.1,118.7z"/>
		<path class="st6" d="M144.7,120.7c0.4,0.5,1.2,0.9,2.1,0.9c1,0,1.5-0.4,1.5-1c0-0.7-0.8-0.9-1.6-1.1c-1.1-0.2-2.3-0.5-2.3-1.8
			c0-1,0.8-1.8,2.3-1.8c1.1,0,1.8,0.4,2.3,0.9l-0.5,0.7c-0.4-0.5-1.1-0.8-1.9-0.8c-0.9,0-1.4,0.4-1.4,0.9c0,0.6,0.7,0.8,1.5,1
			c1.1,0.2,2.4,0.6,2.4,2c0,1.1-0.8,1.9-2.5,1.9c-1,0-1.9-0.3-2.5-1L144.7,120.7z"/>
		<path class="st6" d="M151,120.9v-4.1h-1V116h1v-1.7h1v1.7h1.3v0.9h-1.3v3.9c0,0.5,0.2,0.8,0.6,0.8c0.3,0,0.5-0.1,0.7-0.3l0.3,0.7
			c-0.2,0.2-0.6,0.4-1.2,0.4C151.4,122.4,151,121.9,151,120.9z"/>
		<path class="st6" d="M157.3,115.8c1.9,0,3,1.5,3,3.4v0.2h-5.1c0.1,1.2,0.9,2.2,2.3,2.2c0.7,0,1.4-0.3,1.9-0.8l0.5,0.6
			c-0.6,0.6-1.5,1-2.5,1c-1.9,0-3.2-1.3-3.2-3.3C154.2,117.3,155.5,115.8,157.3,115.8z M155.3,118.7h4.1c0-0.9-0.6-2.1-2.1-2.1
			C156,116.6,155.3,117.7,155.3,118.7z"/>
		<path class="st6" d="M166.5,121.3c-0.5,0.6-1.2,1.1-2.1,1.1c-1.6,0-2.8-1.2-2.8-3.3c0-2,1.1-3.3,2.8-3.3c0.8,0,1.6,0.4,2.1,1.1
			v-3.3h1v8.7h-1V121.3z M166.5,117.7c-0.4-0.5-1.1-1-1.9-1c-1.3,0-2,1-2,2.4c0,1.4,0.8,2.4,2,2.4c0.8,0,1.5-0.4,1.9-1V117.7z"/>
		<path class="st6" d="M172.6,114.2c0-0.4,0.3-0.7,0.6-0.7c0.4,0,0.7,0.3,0.7,0.7s-0.3,0.7-0.7,0.7
			C172.9,114.9,172.6,114.6,172.6,114.2z M172.7,116h1v6.3h-1V116z"/>
		<path class="st6" d="M179.9,118.1c0-1.1-0.6-1.5-1.4-1.5c-0.8,0-1.5,0.5-1.9,1v4.6h-1V116h1v0.9c0.4-0.5,1.3-1.1,2.2-1.1
			c1.3,0,2,0.7,2,2v4.4h-1V118.1z"/>
		<path class="st6" d="M186.5,123.9c0.4,0,0.7-0.1,0.9-0.7l0.4-0.9l-2.6-6.3h1.1l2.1,5.1l2.1-5.1h1.1l-3.1,7.6
			c-0.4,0.9-1,1.3-1.8,1.3c-0.2,0-0.5,0-0.7-0.1l0.2-0.9C186.1,123.9,186.4,123.9,186.5,123.9z"/>
		<path class="st6" d="M192.2,119.1c0-1.8,1.2-3.3,3.1-3.3s3.1,1.5,3.1,3.3c0,1.8-1.2,3.3-3.1,3.3S192.2,120.9,192.2,119.1z
			 M197.4,119.1c0-1.3-0.7-2.4-2.1-2.4c-1.3,0-2.1,1.1-2.1,2.4c0,1.3,0.8,2.4,2.1,2.4C196.6,121.5,197.4,120.4,197.4,119.1z"/>
		<path class="st6" d="M204.2,121.3c-0.5,0.5-1.3,1-2.2,1c-1.3,0-2-0.6-2-2V116h1v4.1c0,1.1,0.6,1.4,1.4,1.4c0.8,0,1.5-0.4,1.9-0.9
			V116h1v6.3h-1V121.3z"/>
		<path class="st6" d="M207.7,120.9c0.4,0,0.7,0.3,0.7,0.7s-0.3,0.7-0.7,0.7c-0.4,0-0.7-0.3-0.7-0.7S207.3,120.9,207.7,120.9z"/>
	</g>
	<g class="st4">
		<path class="st6" d="M96.3,130.6h5.7v1h-4.6v2.8h4.5v1h-4.5v4h-1.1V130.6z"/>
		<path class="st6" d="M103.2,131.2c0-0.4,0.3-0.7,0.6-0.7c0.4,0,0.7,0.3,0.7,0.7s-0.3,0.7-0.7,0.7
			C103.5,131.9,103.2,131.6,103.2,131.2z M103.4,133h1v6.3h-1V133z"/>
		<path class="st6" d="M110.6,135.1c0-1.1-0.6-1.5-1.4-1.5c-0.8,0-1.5,0.5-1.9,1v4.6h-1V133h1v0.9c0.4-0.5,1.3-1.1,2.2-1.1
			c1.3,0,2,0.7,2,2v4.4h-1V135.1z"/>
		<path class="st6" d="M118,138.3c-0.5,0.6-1.2,1.1-2.1,1.1c-1.6,0-2.8-1.2-2.8-3.3c0-2,1.1-3.3,2.8-3.3c0.8,0,1.6,0.4,2.1,1.1v-3.3
			h1v8.7h-1V138.3z M118,134.7c-0.4-0.5-1.1-1-1.9-1c-1.3,0-2,1-2,2.4c0,1.4,0.8,2.4,2,2.4c0.8,0,1.5-0.4,1.9-1V134.7z"/>
		<path class="st6" d="M124,136.1c0-1.8,1.2-3.3,3.1-3.3s3.1,1.5,3.1,3.3c0,1.8-1.2,3.3-3.1,3.3S124,137.9,124,136.1z M129.1,136.1
			c0-1.3-0.7-2.4-2.1-2.4c-1.3,0-2.1,1.1-2.1,2.4c0,1.3,0.8,2.4,2.1,2.4C128.4,138.5,129.1,137.4,129.1,136.1z"/>
		<path class="st6" d="M136,138.3c-0.5,0.5-1.3,1-2.2,1c-1.3,0-2-0.6-2-2V133h1v4.1c0,1.1,0.6,1.4,1.4,1.4c0.8,0,1.5-0.4,1.9-0.9
			V133h1v6.3h-1V138.3z"/>
		<path class="st6" d="M139.1,137.9v-4.1h-1V133h1v-1.7h1v1.7h1.3v0.9h-1.3v3.9c0,0.5,0.2,0.8,0.6,0.8c0.3,0,0.5-0.1,0.7-0.3
			l0.3,0.7c-0.2,0.2-0.6,0.4-1.2,0.4C139.6,139.4,139.1,138.9,139.1,137.9z"/>
		<path class="st6" d="M153.7,135c0-0.8-0.4-1.3-1.2-1.3c-0.7,0-1.3,0.5-1.7,1v4.6h-1V135c0-0.8-0.3-1.3-1.2-1.3
			c-0.6,0-1.3,0.5-1.7,1v4.6h-1V133h1v0.9c0.3-0.4,1.1-1.1,2-1.1c1,0,1.5,0.5,1.7,1.2c0.4-0.6,1.2-1.2,2.1-1.2
			c1.1,0,1.8,0.6,1.8,1.9v4.5h-1V135z"/>
		<path class="st6" d="M156.2,136.1c0-1.8,1.2-3.3,3.1-3.3s3.1,1.5,3.1,3.3c0,1.8-1.2,3.3-3.1,3.3S156.2,137.9,156.2,136.1z
			 M161.4,136.1c0-1.3-0.7-2.4-2.1-2.4c-1.3,0-2.1,1.1-2.1,2.4c0,1.3,0.8,2.4,2.1,2.4C160.7,138.5,161.4,137.4,161.4,136.1z"/>
		<path class="st6" d="M164,133h1v1c0.5-0.7,1.2-1.1,2.1-1.1v1c-0.1,0-0.2,0-0.4,0c-0.6,0-1.4,0.5-1.7,1v4.4h-1V133z"/>
		<path class="st6" d="M171.1,132.8c1.9,0,3,1.5,3,3.4v0.2H169c0.1,1.2,0.9,2.2,2.3,2.2c0.7,0,1.4-0.3,1.9-0.8l0.5,0.6
			c-0.6,0.6-1.5,1-2.5,1c-1.9,0-3.2-1.3-3.2-3.3C168,134.3,169.3,132.8,171.1,132.8z M169,135.7h4.1c0-0.9-0.6-2.1-2.1-2.1
			C169.7,133.6,169,134.7,169,135.7z"/>
		<path class="st6" d="M177.6,134c0.6-0.4,1.1-0.8,1.1-1.4c0-0.7-0.5-1.2-1.5-1.2c-1,0-1.6,0.4-2.1,1.1l-0.7-0.7
			c0.6-0.8,1.6-1.3,2.8-1.3c1.6,0,2.5,0.9,2.5,2c0,1.1-0.8,1.6-1.5,2.1c-0.6,0.4-1.1,0.7-1.1,1.3c0,0.2,0.1,0.5,0.4,0.6l-0.8,0.3
			c-0.4-0.3-0.5-0.7-0.5-1.1C176.3,134.9,177,134.4,177.6,134z M177.1,137.9c0.4,0,0.7,0.3,0.7,0.7s-0.3,0.7-0.7,0.7
			c-0.4,0-0.7-0.3-0.7-0.7S176.7,137.9,177.1,137.9z"/>
	</g>
	<g class="st4">
		<path class="st6" d="M61.8,160.6h3.8c1.8,0,2.8,1.2,2.8,2.7s-1,2.7-2.8,2.7h-2.3v3.2h-1.5V160.6z M65.4,161.9h-2.1v2.8h2.1
			c0.9,0,1.5-0.5,1.5-1.4S66.3,161.9,65.4,161.9z"/>
		<path class="st6" d="M69.7,160.6H71v8.7h-1.4V160.6z"/>
		<path class="st6" d="M75.6,162.8c1.9,0,3.1,1.4,3.1,3.4v0.3h-4.8c0.1,0.9,0.8,1.7,2,1.7c0.6,0,1.3-0.2,1.8-0.7l0.6,0.9
			c-0.6,0.6-1.5,0.9-2.5,0.9c-1.9,0-3.3-1.3-3.3-3.3C72.4,164.3,73.7,162.8,75.6,162.8z M73.8,165.6h3.5c0-0.7-0.5-1.7-1.8-1.7
			C74.4,163.9,73.9,164.8,73.8,165.6z"/>
		<path class="st6" d="M83.9,168.6c-0.5,0.5-1.2,0.8-2,0.8c-1,0-2.2-0.7-2.2-2.1c0-1.4,1.2-2,2.2-2c0.8,0,1.6,0.3,2,0.8v-0.9
			c0-0.7-0.6-1.2-1.5-1.2c-0.7,0-1.3,0.3-1.9,0.8l-0.6-0.9c0.7-0.7,1.6-1,2.6-1c1.4,0,2.6,0.6,2.6,2.3v4.2h-1.4V168.6z M83.9,166.9
			c-0.3-0.4-0.9-0.7-1.5-0.7c-0.8,0-1.3,0.4-1.3,1.1c0,0.7,0.6,1.1,1.3,1.1c0.6,0,1.2-0.2,1.5-0.6V166.9z"/>
		<path class="st6" d="M87.1,167.4c0.4,0.5,1.3,0.9,2.1,0.9c0.8,0,1.2-0.3,1.2-0.8c0-0.5-0.7-0.7-1.4-0.9c-1.1-0.2-2.4-0.5-2.4-1.9
			c0-1,0.9-1.9,2.5-1.9c1.1,0,1.9,0.4,2.4,0.9l-0.6,1c-0.4-0.4-1.1-0.8-1.9-0.8c-0.7,0-1.2,0.3-1.2,0.7c0,0.5,0.6,0.7,1.4,0.8
			c1.1,0.2,2.4,0.5,2.4,2c0,1.1-0.9,2-2.6,2c-1.1,0-2-0.3-2.7-1L87.1,167.4z"/>
		<path class="st6" d="M95.9,162.8c1.9,0,3.1,1.4,3.1,3.4v0.3h-4.8c0.1,0.9,0.8,1.7,2,1.7c0.6,0,1.3-0.2,1.8-0.7l0.6,0.9
			c-0.6,0.6-1.5,0.9-2.5,0.9c-1.9,0-3.3-1.3-3.3-3.3C92.8,164.3,94.1,162.8,95.9,162.8z M94.2,165.6h3.5c0-0.7-0.5-1.7-1.8-1.7
			C94.8,163.9,94.2,164.8,94.2,165.6z"/>
		<path class="st6" d="M104,167.8v-3.6h-1V163h1v-1.7h1.4v1.7h1.3v1.2h-1.3v3.3c0,0.4,0.2,0.7,0.6,0.7c0.3,0,0.5-0.1,0.6-0.2l0.3,1
			c-0.2,0.2-0.6,0.4-1.3,0.4C104.6,169.4,104,168.8,104,167.8z"/>
		<path class="st6" d="M111.7,168.6c-0.5,0.5-1.2,0.8-2,0.8c-1,0-2.2-0.7-2.2-2.1c0-1.4,1.2-2,2.2-2c0.8,0,1.6,0.3,2,0.8v-0.9
			c0-0.7-0.6-1.2-1.5-1.2c-0.7,0-1.3,0.3-1.9,0.8l-0.6-0.9c0.7-0.7,1.6-1,2.6-1c1.4,0,2.6,0.6,2.6,2.3v4.2h-1.4V168.6z M111.7,166.9
			c-0.3-0.4-0.9-0.7-1.5-0.7c-0.8,0-1.3,0.4-1.3,1.1c0,0.7,0.6,1.1,1.3,1.1c0.6,0,1.2-0.2,1.5-0.6V166.9z"/>
		<path class="st6" d="M114.8,171.6V163h1.4v0.9c0.5-0.6,1.2-1,2-1c1.6,0,2.8,1.2,2.8,3.3c0,2.1-1.2,3.3-2.8,3.3c-0.8,0-1.5-0.4-2-1
			v3.3H114.8z M117.8,164c-0.6,0-1.3,0.4-1.6,0.8v2.5c0.3,0.5,1,0.8,1.6,0.8c1.1,0,1.8-0.9,1.8-2.1C119.6,164.9,118.9,164,117.8,164
			z"/>
		<path class="st6" d="M129.6,168.6c-0.5,0.5-1.2,0.8-2,0.8c-1,0-2.2-0.7-2.2-2.1c0-1.4,1.2-2,2.2-2c0.8,0,1.6,0.3,2,0.8v-0.9
			c0-0.7-0.6-1.2-1.5-1.2c-0.7,0-1.3,0.3-1.9,0.8l-0.6-0.9c0.7-0.7,1.6-1,2.6-1c1.4,0,2.6,0.6,2.6,2.3v4.2h-1.4V168.6z M129.6,166.9
			c-0.3-0.4-0.9-0.7-1.5-0.7c-0.8,0-1.3,0.4-1.3,1.1c0,0.7,0.6,1.1,1.3,1.1c0.6,0,1.2-0.2,1.5-0.6V166.9z"/>
		<path class="st6" d="M136,160.6h1.4v3.3c0.5-0.7,1.2-1,2-1c1.6,0,2.8,1.3,2.8,3.3c0,2.1-1.2,3.3-2.8,3.3c-0.8,0-1.5-0.4-2-1v0.9
			H136V160.6z M139,168.2c1.1,0,1.8-0.9,1.8-2.1c0-1.2-0.7-2.1-1.8-2.1c-0.6,0-1.3,0.4-1.6,0.9v2.5
			C137.7,167.8,138.4,168.2,139,168.2z"/>
		<path class="st6" d="M147.8,168.4c-0.5,0.5-1.2,1-2.2,1c-1.4,0-2-0.7-2-2V163h1.4v4c0,1,0.5,1.3,1.3,1.3c0.7,0,1.3-0.4,1.6-0.8
			V163h1.4v6.3h-1.4V168.4z"/>
		<path class="st6" d="M151.2,167.8v-3.6h-1V163h1v-1.7h1.4v1.7h1.3v1.2h-1.3v3.3c0,0.4,0.2,0.7,0.6,0.7c0.3,0,0.5-0.1,0.6-0.2
			l0.3,1c-0.2,0.2-0.6,0.4-1.3,0.4C151.8,169.4,151.2,168.8,151.2,167.8z"/>
		<path class="st6" d="M155.4,167.8v-3.6h-1V163h1v-1.7h1.4v1.7h1.3v1.2h-1.3v3.3c0,0.4,0.2,0.7,0.6,0.7c0.3,0,0.5-0.1,0.6-0.2
			l0.3,1c-0.2,0.2-0.7,0.4-1.3,0.4C155.9,169.4,155.4,168.8,155.4,167.8z"/>
		<path class="st6" d="M158.9,166.1c0-1.8,1.2-3.3,3.2-3.3c2,0,3.2,1.5,3.2,3.3c0,1.8-1.2,3.3-3.2,3.3
			C160.1,169.4,158.9,167.9,158.9,166.1z M163.9,166.1c0-1.1-0.7-2.1-1.8-2.1c-1.2,0-1.8,1-1.8,2.1c0,1.1,0.6,2.1,1.8,2.1
			C163.3,168.2,163.9,167.2,163.9,166.1z"/>
		<path class="st6" d="M170.9,165.3c0-1-0.5-1.3-1.3-1.3c-0.7,0-1.3,0.4-1.6,0.8v4.4h-1.4V163h1.4v0.9c0.4-0.5,1.2-1,2.2-1
			c1.4,0,2,0.7,2,2v4.4h-1.4V165.3z"/>
		<path class="st6" d="M177.4,160.6h1.4v3.3c0.5-0.7,1.2-1,2-1c1.6,0,2.8,1.3,2.8,3.3c0,2.1-1.2,3.3-2.8,3.3c-0.8,0-1.5-0.4-2-1v0.9
			h-1.4V160.6z M180.4,168.2c1.1,0,1.8-0.9,1.8-2.1c0-1.2-0.7-2.1-1.8-2.1c-0.6,0-1.3,0.4-1.6,0.9v2.5
			C179.1,167.8,179.8,168.2,180.4,168.2z"/>
		<path class="st6" d="M187.8,162.8c1.9,0,3.1,1.4,3.1,3.4v0.3H186c0.1,0.9,0.8,1.7,2,1.7c0.6,0,1.3-0.2,1.8-0.7l0.6,0.9
			c-0.6,0.6-1.5,0.9-2.5,0.9c-1.9,0-3.3-1.3-3.3-3.3C184.6,164.3,185.9,162.8,187.8,162.8z M186,165.6h3.5c0-0.7-0.5-1.7-1.8-1.7
			C186.6,163.9,186.1,164.8,186,165.6z"/>
		<path class="st6" d="M192.2,160.6h1.4v8.7h-1.4V160.6z"/>
		<path class="st6" d="M195,166.1c0-1.8,1.2-3.3,3.2-3.3c2,0,3.2,1.5,3.2,3.3c0,1.8-1.2,3.3-3.2,3.3
			C196.2,169.4,195,167.9,195,166.1z M200,166.1c0-1.1-0.6-2.1-1.8-2.1c-1.2,0-1.8,1-1.8,2.1c0,1.1,0.7,2.1,1.8,2.1
			C199.3,168.2,200,167.2,200,166.1z"/>
		<path class="st6" d="M206.8,164.6l-1.5,4.6h-1.4l-2-6.3h1.4l1.3,4.6l1.5-4.6h1.2l1.5,4.6l1.3-4.6h1.4l-2,6.3h-1.4L206.8,164.6z"/>
	</g>
</g>
</svg>
